<svg id="Camada_2" data-name="Camada 2" xmlns="http://www.w3.org/2000/svg" width="94.8" height="98.211" viewBox="0 0 94.8 98.211">
  <g id="Camada_1" data-name="Camada 1">
    <path id="Caminho_2249" data-name="Caminho 2249" d="M94.8,49a68.349,68.349,0,0,1-1.11,8.3A47.31,47.31,0,0,1,73.63,86.77c-1.07.74-1.2.67-1.45-.55a2.13,2.13,0,0,0-.11-.58c-1.16-2.15-.23-3.32,1.56-4.72A41.21,41.21,0,0,0,89.84,51.51a42.4,42.4,0,0,0-22.77-42A39.58,39.58,0,0,0,45.32,4.7c-18,1.41-31.07,10.4-37.63,27.2s-3,32.27,9.36,45.56a25.46,25.46,0,0,0,4.43,3.85,2.34,2.34,0,0,1,1.16,2.4c-.07.88,0,1.76,0,2.64,0,.34.15.78-.21,1s-.68-.13-1-.32a45.51,45.51,0,0,1-8.06-6.59A46.75,46.75,0,0,1,.79,56.21C.44,54.37.26,52.5,0,50.64V44.16c.21-1.54.33-3.1.64-4.62C4.53,20.13,16,7.53,34.86,1.64A50.47,50.47,0,0,1,44.16,0h6.48c2,.31,4,.49,5.92.86A47.62,47.62,0,0,1,93.93,38.48c.45,2.44.6,4.9.87,7.36Z" fill="#fff"/>
    <path id="Caminho_2250" data-name="Caminho 2250" d="M60,98.16c-5.79-2.16-7.87-10.23-3.88-15A7,7,0,0,1,68,84.79,11.47,11.47,0,0,1,68,94a6.89,6.89,0,0,1-5.09,4.15Zm4-8.46a7.87,7.87,0,0,0-.64-3.59A2,2,0,0,0,59.8,86a7.46,7.46,0,0,0-.09,6.79,1.993,1.993,0,0,0,3.68,0A5.8,5.8,0,0,0,64,89.7Z" fill="#fff"/>
    <path id="Caminho_2251" data-name="Caminho 2251" d="M45.36,98.16c-2.69-.56-4.79-1.84-5.44-4.72a7.72,7.72,0,0,1,.54-4.92,67.71,67.71,0,0,1,3.9-6.89,1,1,0,0,1,.86-.56h3.72c.77,0,.57.49.33.9-.71,1.2-1.44,2.4-2.18,3.59-.31.51-.33.77.39.8,3.77.19,5.51,2.7,5.62,5.38.12,3.2-1.8,5.49-5.24,6.29a3.418,3.418,0,0,0-.34.13Zm3.09-6.27a1.9,1.9,0,0,0-2.08-2.07,2.06,2.06,0,0,0-2.11,2.12A2.1,2.1,0,0,0,46.42,94a1.92,1.92,0,0,0,2.03-2.11Z" fill="#fff"/>
    <path id="Caminho_2252" data-name="Caminho 2252" d="M31,98.16c-2.33-.49-4.17-1.6-4.93-4-.57-1.81-.42-2,1.42-2h1.44c.72,0,1.27.06,1.57.92a1.49,1.49,0,0,0,2,.91,1.66,1.66,0,0,0,1.19-2A1.5,1.5,0,0,0,32,90.51H30.09c-1.14,0-1.44-.53-.9-1.55s1.16-2,1.78-3c.43-.68.24-.91-.52-.9H27.21c-.74,0-1.12-.23-1.12-1,0-3.62-.23-2.93,2.77-3h7.55c1.35,0,1.58.4.88,1.59S35.8,85.1,35,86.31c-.32.5-.36.85.27,1.12a5.12,5.12,0,0,1,2.86,5.89A5.57,5.57,0,0,1,33.69,98l-.81.21Z" fill="#fff"/>
    <path id="Caminho_2253" data-name="Caminho 2253" d="M38.15,47.76V41.05a8.53,8.53,0,0,1,.11-1.43,2.91,2.91,0,0,1,4.58-2.19Q48.94,41,55,44.76A2.94,2.94,0,0,1,54.9,50q-6,3.68-12,7.24A2.93,2.93,0,0,1,38.28,55a71.206,71.206,0,0,1-.13-7.24Z" fill="#fff"/>
  </g>
</svg>
