<svg xmlns="http://www.w3.org/2000/svg" viewBox="0 0 1061.42 1054.27"><defs><style>.cls-1{fill:#1f7251;}.cls-2{fill:#91cc8a;}.cls-3{fill:#00a54f;}.cls-4{fill:#cae2b0;}.cls-5{fill:#dfd99d;}.cls-6{fill:#40814d;}.cls-7{fill:#61a46e;}.cls-8{fill:#98c536;}.cls-9{fill:#e8e8e8;}.cls-10{fill:#60be73;}.cls-11{fill:#a4ce4c;}.cls-12{fill:#2e2e2e;}</style></defs><g id="Camada_2" data-name="Camada 2"><g id="Camada_1-2" data-name="Camada 1"><g id="Grupo_53" data-name="Grupo 53"><g id="Caminho_2261" data-name="Caminho 2261"><path class="cls-1" d="M400.83,582.37c-8.16,2.15-16.23-1.13-24.4-.38-3.88.38-3.36-3.46-3.32-5.66a32.09,32.09,0,0,0-7.15-22.8c-1.47-1.7-1.95-3,.45-4.11,6.93-3.2,5.21-8.35,3.09-13.6-2-5-6.44-9.42-3.13-15.67.81-1.52-1.08-2.94-2.67-4.08a33.67,33.67,0,0,0-27.37-6.9A8.9,8.9,0,0,1,326,504.76a15,15,0,0,0-9.81-6.83c-7.74-1.64-14-6.12-20.67-9.41-6.3-3.08-13.36-10.34-23.11-7.2a11.81,11.81,0,0,1-15.55-6.07,11.94,11.94,0,0,0-6.55-5.08c-9.07-4.32-16-12.1-16.17-21.13-.17-9.94-6.21-20-.2-30.17,2-3.33,0-7.51-.5-11.29-.24-2-1.13-2.37-3-2.19-15,1.4-30.21,1.82-41.29,14.34-9.7.26-14.11,12.6-25,10.82-2.25-.38-3.76,3-5.31,5.1-4.83,6.56-10.24,6.77-18.2,4.55a56,56,0,0,0-33.78-.22c-10.19,3.57-16,.29-16.11-10.67a112.4,112.4,0,0,1,1.52-29.24,20.32,20.32,0,0,0-9.69,6.34c-9.17,7.67-19.77,7.09-30.55,5.91a4.83,4.83,0,0,1-4.63-5s0-.09,0-.13c-.32-7-4.87-8.84-10.81-9.1-2.3-.11-4.59-.28-6.89-.35-5.15-.16-10.34-.1-4.29-7.13,3.42-4,1.07-7.21-2.11-9.79C12.4,371.94,8.56,358.32.65,347.44c-.76-1-.82-4-.35-4.23,6-2.81,4.18-8.83,5.83-13.38a15.62,15.62,0,0,1,11.24-9.48c4.8-1.46,7.23-3.71,4.14-8.77a7.59,7.59,0,0,1-.75-2.16c-.76-3.08,11.31-29.65,14.12-31.23a55.76,55.76,0,0,0,9.22-5.43,48.31,48.31,0,0,1,30-11.75c7.57-.34,12.52-8,20.57-6.88,2.43.33,4.48-.3,6.73,2.08,2.44,2.58,6.78,3.72,7.8-1.75,4.91-26,12.94-51.68,13-78.35,0-9.3-1.76-20-12.44-25.32-4.86-2.41-4.11-7.21-3.94-11.45s-1.9-11,1.28-12.18c5.21-1.9,10.93-4.64,16.9-3.76,2.83.41,5.83,2.14,6.24-2.38.38-4.06-1.31-7-6-7a30.57,30.57,0,0,0-3.83-.09c-7.43.93-8.62-2.79-8.87-9.48-.31-8,3.23-9.59,9.94-9.36q12.64.45,25.3.14c3.39-.09,8.79,2.39,8.35-4.91-.09-1.41,2.05-2.09,2.93-1.2,7.42,7.56,11.43-1.37,15.83-4,4.68-2.78,5.88-2,7.6,2.27,2.53,6.26,9.78,10.88,6.28,19.25-.56,1.32,1,2.93,2.9,2.65,4.76-.72,7.53,2.35,10.51,5.17,9,8.56,10,8.62,20.1,1.66,3.83.07,9-1.69,6.51,5.89-.76,2.34,1.78,3.06,3.39,1.52a76.8,76.8,0,0,0,6.17-7.42,9.21,9.21,0,0,1,6.58-6.65,23.83,23.83,0,0,0,12.56-6.69c2.28-2.78,7.34,3.2,9-2.65.24-.87,2-1.5,2-2.21-.26-10.56,7.73-11.45,15.1-13.07,2.85-.62,4.61-2,4.33-5.23-.33-3.74-3.46-2.7-5.28-2.57-6.79.51-9.6-1.48-12-8.86-2.45-7.59-6.2-14.46-6-22.91.08-3.73-5.31-4.27-7.72-6.83-1.93-2-3.88-4.06-5.77-6.13-1.52-1.68-3.86-3.71-1.58-5.81s3.08,1.54,4.68,2.35a9.15,9.15,0,0,0,7.24,1.4,6,6,0,0,1,7.05,1.52c4.43,7.06,12.31,5,16.76,3.63,5.89-1.8,7.58.47,10.59,3.64,1.48,1.55,1.86,5.38,5.61,3.74,2.69-1.18,3.05-3.08,3.34-6,.67-6.92,7.06-7.1,11.7-6.86a32.45,32.45,0,0,0,24.76-8,14.44,14.44,0,0,1,6.42-2.17C354.66,18,360,14,360.51,5c.38-6,5.69-3.75,8.88-4.36s7.47-2,8.79,3.15a14.78,14.78,0,0,1,.63,6c-1.06,5.84-1.74,10.24,6.24,12.51,6.18,1.78,7.18,15,2.63,20.34-6.95,8.17-8.34,26.79-2.7,35.94.79,1.29,2,2.76,1.88,4.07-1.08,16.59,12.63,19.95,23.31,25.54a7.21,7.21,0,0,0,8.82-4.13c1.9-4,5.51-3.86,9.23-5,6.68-2,14.67-1.65,19.74-7.52a8,8,0,0,1,9.5-2.93c9,4.07,18.77-3,27.57,2.25a2.85,2.85,0,0,0,2.66-.87,3.33,3.33,0,0,0-.79-4.15c-2.54-2.51-5.08-4.65-1.89-9s6.07-2,9.4-1.29a15,15,0,0,0,10.47-1.16c6.63-3.64,12.23-1.69,17.53,2.73a16.63,16.63,0,0,0,18.74,3.59,25.39,25.39,0,0,1,22.75.67c4.31,2.6,14.09-3.15,15.36-9.21,2.94-14.16,12.3-24.44,20.34-35.56,2.52-3.48,6.07-6.4,6.47-11s2.95-4.26,5.59-2.16a22.06,22.06,0,0,1,8.87,17.06,96.25,96.25,0,0,0,11.94,41.66c-1,6.75,1.62,10.36,8.76,10,11.26.64,13.45,4.76,10.09,19-1.74.31-2.06,1.37-1.52,2.89l-1.28,1.72c-3.85-.14-.9,5.56-4.85,5.53-7-.06-8.81,6-11.84,10.52-1.15,1.75-1.45,3.33.65,4.47,2.59,1.41,3.12-.89,3.63-2.43a11.51,11.51,0,0,1,11.33-8.54c1.69,4.44-4.68,5.5-4,9.48-.59-.26-1.14-.5-1.72-.73l-.12.66,1.76-.07c4.07-4.58,9.37-1.42,14-2.23-1.41,6.68-4.47,10.76-12.16,8.05-1.94-.68-4.46-.94-5.16,1.56-.83,2.94,2.16,2.93,3.88,3.53,11.61,4.09,23.41,2.42,35.19,1,8.85.45,16.29,4.51,24.15,8.16A66.6,66.6,0,0,0,722.06,160a72.56,72.56,0,0,1,23.19,7.13,81.09,81.09,0,0,0,16.25,7,29.06,29.06,0,0,1,9.36,4.67c3,2.06,4.88,8.09,10.28,2.95.8-.76,4.53.07,5.57,1.3,5.85,6.93,14.34,12.19,15,22.6.12,1.79.35,1.77,8.09,2-1.42,2.89-2.84,5.8-4.63,9.46,4.24-1,7.11-2,7.65-5.95l4.7-1.17,2,.3.05,0c-2.47,5-9.8,7.25-8.05,14.66,1.26,5.28-.76,7.2-6.42,7.2-7.81,0-10.73,3.52-10.55,11.54a28.58,28.58,0,0,1-7.37,18.07A10.1,10.1,0,0,1,774,264.75c-6.35-3.55-7.54-1.49-7,4.67.54,5.72-8.95,19.89-14.14,21.73-2,.7-3.37-.34-5-1.11-6.26-3-12.32-8.66-19.54-1.76a3,3,0,0,1-2.85.31c-5.91-6.32-14.15-1.16-20.72-4.33-4.41-2.13-5.42.61-5.08,4.41a7.22,7.22,0,0,0,4.61,6.47c2.55,1.1,3,3.86.24,4.05-11.14.76-5,8.1-3.65,11.3a24.78,24.78,0,0,1-1.17,22.7,46.68,46.68,0,0,0-4.93,11.12c-.6,2.33-1.19,6.18-4.18,5.09-3.18-1.14-.85-4.46.07-6.61,2.52-6,5.48-11.79,4.25-20.07-3.13,4.07-8.76,7.43-8.57,8.8,1.09,7.88-3.55,15.61-.52,23.26,3.89,9.86,2.75,20.13,3,30.28a5.47,5.47,0,0,1-5.2,5.63c-3.15.09-3.12-3.41-2.66-5.33,1.9-7.79-4.26-12.1-7.2-17.73-2-3.76-4-1.67-5.74.57a227.68,227.68,0,0,1-16.58,19.06,18.71,18.71,0,0,0-5.92,11.36c-.69,7.39-6.15,12.8-8.25,19.63-.76,2.42-.92,2.37-18.11-2.43-2.07-.57-4.14-1-5.37,1.33a3.2,3.2,0,0,0,.62,4.47,3.3,3.3,0,0,0,1.06.53c1.43.6,3.46,1.49,2.12,3.1-2.7,3.24.23,9-5.52,10.9-5,1.67-9.38,3-13.19-4.32-1.35,6.07-.12,9.2,3.16,11.76q2.6,2.25,5.4,4.23a5.63,5.63,0,0,1-.14,9.72c-7.9,1.3-3.48,5.69-3.16,9.19a19,19,0,0,1-.08,9.08c-4.27,8.92-2.5,19.06-6.62,28.11-2.2,4.82-3.71,5-7.67,2.88a37.7,37.7,0,0,0-33.18-.87,44.61,44.61,0,0,1-24.07,1.47c-3.11-.5-10.92.35-7.79-8,.6-1.62-1.67-2.44-3.14-1.14a42.29,42.29,0,0,0-3.32,4.11c-1.57,1.75-2.74,5.39-5.69,3.52-3.41-2.17.48-4.42,1.24-6.44,1.9-4.93,7.7-8.2,6.15-15.47-1.58,1.7-2.76,2.95-3.92,4.22-1.9,2.09-3.16,7.26-6.32,4.93-4.06-3-11.7-3.26-11.12-10.82.34-4.55,1.24-8.64-5.76-6.41-2,.63-3-.66-3.67-2.77-1.78-5.39-7.82-7.15-10.15-2.54-2.81,5.53-8.19,11.24-6,18,1.79,5.54-.76,7.8-4,10.9-4.12,3.89-11.2,3.89-13.22,10.68-.54,1.83-3.65,1.74-5.52.66s-1.72-2.89-.75-4.68c.69-1.25,2.4-3.59,1-3.86-6.06-1.13-6-9.72-13.21-9.79-5-.06-7.17-3.66-3.84-8.6a5.63,5.63,0,0,0-2.47-9.36,14.62,14.62,0,0,1-7.92-11.31c-1.36-6-3.74-10.64-12.23-10.46a154.13,154.13,0,0,1-18-.78c-7.37-.7-12.24,4-12.74,11.72a9.39,9.39,0,0,1-3.07,6.65c-2.15,2.09-1.11,4.09,1.82,3.61,8.1-1.33,3.8,3,2.28,5.21-5.41,7.83-3.3,14.92,1.95,21.5,2,2.51,5.34,3.9,7.58,6.27,2.61,2.76,3.7,6.79-1.33,7.38-7.53.88-4.37,3.21-1.7,6.27a8.47,8.47,0,0,1,2,4,32.64,32.64,0,0,0,10.54,18.2c12.1,11.92,23.75,10.3,30.83-5,6-13,16.84-16.88,29.85-17.35,3.35-.12,6.2,1,6.78,4.74,1,6.7,1.21,14.29-2.43,19.33-2.61,3.61-8.66,4.87-8.94,11,0,.31-2.1.24-2.76.84-3.13,2.84-8.92,6.17-7.46,9.55,2.14,4.93-.55,6.07-2.79,8.39-2.07.22-3.14-.64-3.86-2.69-3.32-9.48-3.57-9.59-10.12-1.75-2.43,2.91-4.74,4.42-7.33,1.36-5.51-6.53-9.86-7.36-14.1,1.18C406.07,576,400.43,577.07,400.83,582.37ZM793,220.69c.56,2-1.24,4.64,1.47,6,.41.21,2.13-.92,2.17-1.51a9.23,9.23,0,0,1,3.38-7.1c1.14-1,.73-4.42.21-6.54-.34-1.42-2.14,0-3.26-.11-3.61-.21-2.69,3-3.56,4.76a12.54,12.54,0,0,0-.41,4.52Z"/></g><g id="Caminho_2262" data-name="Caminho 2262"><path class="cls-2" d="M443.27,574.3c2.25-2.31,4.93-3.46,2.8-8.38-1.46-3.38,4.32-6.71,7.45-9.55.67-.61,2.76-.53,2.77-.84.27-6.16,6.32-7.42,8.94-11,3.64-5,3.46-12.62,2.43-19.32-.58-3.76-3.42-4.86-6.79-4.74-13,.47-23.81,4.35-29.84,17.35-7.08,15.28-18.73,16.9-30.84,5a32.75,32.75,0,0,1-10.54-18.21,8.47,8.47,0,0,0-2-4c-2.66-3.06-5.84-5.39,1.69-6.27,5-.6,3.94-4.62,1.33-7.38-2.24-2.37-5.59-3.76-7.58-6.27-5.25-6.59-7.36-13.68-1.95-21.5,1.52-2.19,5.82-6.54-2.27-5.22-2.93.48-4-1.51-1.83-3.6a9.39,9.39,0,0,0,3.07-6.65c.51-7.71,5.37-12.42,12.75-11.72a154.05,154.05,0,0,0,18,.78c8.49-.18,10.87,4.48,12.23,10.46A14.62,14.62,0,0,0,431,474.5a5.62,5.62,0,0,1,3.86,7,5.75,5.75,0,0,1-1.39,2.4c-3.34,4.93-1.14,8.54,3.83,8.59,7.23.08,7.16,8.65,13.22,9.8,1.4.27-.31,2.61-1,3.86-1,1.79-1.14,3.6.76,4.68s5,1.17,5.51-.66c2-6.79,9.11-6.8,13.22-10.68,3.3-3.1,5.84-5.36,4-10.9-2.17-6.72,3.21-12.43,6-18,2.34-4.61,8.37-2.84,10.15,2.54.7,2.12,1.69,3.42,3.68,2.78,7-2.23,6.1,1.85,5.75,6.41-.57,7.55,7.06,7.85,11.12,10.82,3.17,2.32,4.42-2.86,6.32-4.93,1.16-1.27,2.35-2.52,3.93-4.22,1.55,7.26-4.27,10.54-6.15,15.47-.76,2-4.66,4.26-1.24,6.44,2.93,1.87,4.11-1.78,5.69-3.52a43.63,43.63,0,0,1,3.28-4.15c1.47-1.28,3.74-.46,3.14,1.14-3.13,8.38,4.68,7.52,7.79,8a44.57,44.57,0,0,0,24.06-1.47,37.69,37.69,0,0,1,33.19.87c4,2.09,5.47,1.93,7.66-2.89,4.13-9,2.36-19.18,6.63-28.1a19,19,0,0,0,.08-9.08c-.33-3.53-4.74-7.89,3.15-9.19a5.63,5.63,0,0,0,.15-9.72,66.65,66.65,0,0,1-5.4-4.24c-3.28-2.54-4.51-5.68-3.16-11.75,3.79,7.34,8.22,6,13.18,4.32,5.75-1.93,2.83-7.66,5.53-10.91,1.35-1.61-.69-2.49-2.12-3.1a3.19,3.19,0,0,1-2.21-3.94,3.3,3.3,0,0,1,.53-1.06c1.23-2.3,3.3-1.89,5.37-1.32,17.19,4.79,17.36,4.84,18.11,2.42,2.1-6.82,7.56-12.24,8.25-19.63a18.71,18.71,0,0,1,5.92-11.35,229.28,229.28,0,0,0,16.58-19.06c1.77-2.24,3.76-4.33,5.74-.57,3,5.63,9.12,9.94,7.2,17.72-.47,1.94-.5,5.43,2.66,5.34a5.47,5.47,0,0,0,5.2-5.64c-.29-10.14.86-20.43-3-30.27-3-7.65,1.61-15.38.52-23.27-.18-1.36,5.44-4.72,8.57-8.79,1.23,8.27-1.73,14.1-4.26,20.06-.91,2.16-3.24,5.46-.06,6.62,3,1.08,3.6-2.76,4.19-5.1a47.42,47.42,0,0,1,4.93-11.11,24.77,24.77,0,0,0,1.18-22.71c-1.31-3.18-7.49-10.55,3.65-11.3,2.77-.18,2.3-2.94-.25-4.05a7.2,7.2,0,0,1-4.6-6.47c-.34-3.79.67-6.53,5.08-4.41,6.57,3.17,14.79-2,20.72,4.33a3,3,0,0,0,2.84-.3c7.23-6.9,13.28-1.27,19.54,1.75,1.62.78,3,1.82,5,1.11,5.19-1.83,14.68-16,14.14-21.72-.58-6.16.61-8.23,7-4.68a10.11,10.11,0,0,0,13.19-2.92,28.53,28.53,0,0,0,7.37-18.06c-.18-8,2.74-11.56,10.55-11.54,5.66,0,7.67-1.9,6.42-7.21-1.76-7.4,5.58-9.66,8-14.65,8.77-6.07,17.06-4.42,25.59.94a27.12,27.12,0,0,0,18,4c2.9-.35,7.38-1.95,8.72,3.21-.06,5.35-4.83.1-6.34,3.09,4.31,6.15,2.84,9.86-5.09,10.94-1.54.21-2.9,1.47-4.88,1.3a4.52,4.52,0,0,0-5,4,4.46,4.46,0,0,0,.28,2.11c4,6.54-.69,5-4.1,5.41-2.45.3-5.38.76-5.78,4a4.48,4.48,0,0,0,3.47,5.28c7.8.81,5.44,6,4.28,10a11.34,11.34,0,0,0-.1,8.53c3.13,7.59.8,10.73-7.32,10.56-2.38-.05-3.14.66-3.67,2.66a29.75,29.75,0,0,1-8.06,15.38c-2.82,2.54-.56,4.62.6,6.73.85,1.55,2.52,2.3,3.77.89,5.94-6.71,5.81.9,6.6,3.18,2.27,6.59-3.54,11-5.31,16.68a25.9,25.9,0,0,1-1-5.92,4.86,4.86,0,0,0-4.83-4.88h-.1c-3.92-.12-2.12,3.34-2.56,5.17-.87,3.55,1,7.51-2.5,10.72-10.76,9.86-9.64,23.28-11.16,36.76a8.94,8.94,0,0,0,6.09-8.82c0-4.6.34-9.2.24-13.8a8.58,8.58,0,0,1,2.84-6.82c2.21-2.07,4.93-5.13,7.78-2.66,2.66,2.31,1.88,6-.28,9.06-1.1,1.58-4.17,2.06-3.41,4.55a24.39,24.39,0,0,1-2.09,17c-.71,1.66-.31,2.55,1.93,2.92,6.51,1.08,3.85,6.37,3.58,9.82-.38,4.73-4.76,4.8-8.31,4.51A31.37,31.37,0,0,1,814,384c2.72,10-1.7,16.16-9.23,21.12,5.88-2.35,11.13,4.72,16.46.16,4.23-3.63,5.33-1,5.31,2.8a29.9,29.9,0,0,0,2.77,15.64,4.72,4.72,0,0,1-.82,5.66c-4.43,5.4-3.14,10.76.25,16.73,4.88-6,8.24-13,15.87-16,.91,3.79-1.79,5.22-3.49,6.68-11.11,9.57-12.89,21.24-8.74,34.67a24.73,24.73,0,0,1-1.06,17.94,38.08,38.08,0,0,0-3.12,24.6,66.35,66.35,0,0,1,.59,21.23,10.31,10.31,0,0,1-8,10c-6,1.52-4.28-4.27-6.09-6.7-1.36-1.83-2.42-3.89-3.73-5.77-.9-1.31-.75-4.12-3.29-3.32s-2.41,3.22-2,5.23a49.38,49.38,0,0,0,2.16,6.49,10,10,0,0,1-1.92,11.35c-3.7,2.82-4.41,7.2-8.83,10.37,7.65,1,8.7-4.26,10.53-8,1.51-3.07,2.57-7.22,6.66-5.08a6.07,6.07,0,0,1,3.29,7.92,6,6,0,0,1-1.73,2.36,20.61,20.61,0,0,0-3.76,10.64c-.38,1.62-1.27,3.86,1.13,4.6,2.74.83,3.44-1.34,3.9-3.46,1.49-6.82,6.79-12.44,6.07-20.31a20.17,20.17,0,0,1,4.5,7.07c1.31,3.57,2.17,7.32,3.41,10.92.72,2.08,3.8,4.07,4.07,1.7.7-6.07,7-11.31,4.41-17-4.31-9.65,2.89-11.09,8.79-15.2v7.7c-4.61-.29-6.47,1.77-6,6.42a65.87,65.87,0,0,1,0,8.43A17.22,17.22,0,0,0,850,578.14c3.64,2.51,7.61,9,6.15,13.86a39.61,39.61,0,0,0-.54,17.89c.67,4.6-.52,7.64-5.79,7.49a6.86,6.86,0,0,0-7,5,5.15,5.15,0,0,1-5.93,4.25l-.14,0a3.26,3.26,0,0,0-3.61,2.16,34,34,0,0,1-10.86,12.52c-6.35,5.63-6.86,9.9-.34,15.19,6.73,5.47,5,12.19,4.86,18.88,0,2.66-2.06,3.23-4.32,3.18C812,678.25,801,681.1,792,672.87c-1-.87-2.73-2-4.11-.71a4,4,0,0,0-.14,5c1.19,1.9,3.33,3.25,4.49,5.17a8,8,0,0,1-.05,8.7,5.31,5.31,0,0,1-5.83,2.81c-3.61-.86-2.16-4.08-2.65-6.37-.58-2.69-1.69-5.17-4.84-4.81-7.7.89-13.24,10-8.92,16.34,4,5.75-.42,9-2.36,12.06-1.63,2.57-5.48-.87-7.65-2.65a8.5,8.5,0,0,0-6.29-2.07,14.21,14.21,0,0,1-13-4.62,5.6,5.6,0,0,0-7.68-.57c-2.19,1.65-.71,4.21.25,6.3,1.2,2.58,3,5.82.52,7.83-6.14,5.06-2.81,10.3-.6,15.09a21,21,0,0,1-5.91,26.92,4.75,4.75,0,0,1-5.68-.3c-2.19-1.24-2.92-4.51-1.9-5.13,5.08-3.12,2.6-8.79,4.87-12.92a9.48,9.48,0,0,0-.87-12.3c-1.54-1.32-4.34-3.16-6-1-2,2.63-5.34,6.74-3.45,9.28,4.06,5.43.1,8.62-2,12.11-4.3,7-7.42,15.58-18.28,15.17a5.2,5.2,0,0,0-4.64,5.31c.83,4.74-2.69,6.06-5.39,7.79,1.23,2,4.11.75,4.22,3.64-2.47,1.75-6.63,1.84-7.36,5.59-1.94,10-5.72,13.74-15.06,13.91a18.9,18.9,0,0,0-15.05,6,9,9,0,0,1-9.13,2.76c-2.24-.54-4.4-1.42-4.61-4.35s1.3-3.56,3.71-4.72a192.5,192.5,0,0,0,21.8-12c4.82-3.14,11.33-6.51,5.4-14.28-.76-1-.2-3-.27-4.52-.36-7.63-3.22-9.86-10.87-10.65-10.18-1-20.82.38-30.34-5a8,8,0,0,0-6.7-.65,3.69,3.69,0,0,1-5-1.46,3.48,3.48,0,0,1-.37-1c-1.52-3.52.41-5.84,2.76-8,3-2.72,3.67.62,5.29,1.85,1.8,1.37,4,3.56,5.8,3.38,10.87-1.07,20.88,4.44,31.74,3.6,5.07-.37,8.41-.69,7.49-7.12-.87-6,3.51-6.24,7.42-5,4.55,1.49,5.52,5.58,5,10a6.53,6.53,0,0,0,4,6.83c2.3,1.18,3.2-1.9,4.85-2.7,7.68-3.64,4.73-6.75,0-10.32-3.41-2.54-6.15-5.82-9.78-8.32-3.8-2.6-7.38-7.14-4.24-12.46,3.38-5.71,7.42-1.5,11.17,0a16.26,16.26,0,0,0,2.39.56c4.12-11.27-3.7-19-7.68-27.77-1.23-2.72-1.66-6.61-6-4.44-3.75,1.86-1.61,4.77-.52,7.26s1.89,4.93-1.7,5.69c-7.43,1.59-14.53-1.93-21.91-1.69a6.65,6.65,0,0,1-6.21-3.83c-.92-2.66,2.37-3.77,4.17-5.45a11.14,11.14,0,0,1,14.54-1.33c1.64.92,4.24,2.51,4.55-1.06.28-3.1,1.76-7.23-1.6-9.15-3.07-1.76-6.3-6.41-10.7-1.93a3.74,3.74,0,0,1-4.93.76c-5.06-3.85-10.79-2.16-16.29-2.49-1.94-.12-4.55,1-5.6-1.22-1.49-3.14,1.9-3.61,3.58-4.79,2.27-1.6,2.86-4.15,4.22-6.27,3.79-5.94,6.1-13.77,15.77-12.27,2.69.41,3.15-2,4-3.8a3.37,3.37,0,0,1,4.36-1.89l.12,0a5.06,5.06,0,0,1,3.54,3.72c.53,2.74-3.37,1.14-3.68,3.48,3.37-.43,8.85,1.52,9.38-1.34,1.86-10.12,9.18-5.49,14.37-6.31,3.85-.61,8.63,1.38,10.8-3.5,2.28-5.12-3-5.31-5.41-7.34a3.78,3.78,0,0,1-.88-1.25c-1.8-3.76-5.54-7.5-8.69-5.68-3.58,2-8.44,4.76-9,10-.34,2.83-.89,5.5-4,5.53-3.64,0-1.76-3.5-2.51-5.36-.87-2.18-1.61-4.41-4.5-4.5-1.82-.06-3.86-.1-4.14,2.31-1.05,9.07-4.86,4-7.36,1.22-3.92-4.36-6.52-2.75-10.9-.12s-6.07,9.32-12.62,8.88c-1.87-.12-4.31-.84-5.53,1.45-1.44,2.71.79,4.25,2.39,5.8,4.7,4.52,4,8.68-.22,13.18-2.62,2.79-5.63,6.07-3.85,10.36a9.14,9.14,0,0,1-3.56,11.93,43.5,43.5,0,0,0-12.59,15.69A122,122,0,0,1,583.82,733c-3.33,3.84-22.54,7.63-27.49,6a68.31,68.31,0,0,1-18.08-9.42c-2.44-1.69-5.88-6.13-9.6-2.44a13.83,13.83,0,0,1-11,3.82c-3.47-.07-6.88,2.65-5.65,5.4,3.75,8.39-2.86,10.79-7.51,12.51a7.81,7.81,0,0,0-6.07,9c.09,2.8-.24,5.6-.38,8.41-3.18-1.67-2.49-4.69-2.58-7.44-.3-9.17-4-12.2-12.42-15.45-9.75-3.77-19,1.48-28.54-.45a52.3,52.3,0,0,1-13.93-3.46A37.47,37.47,0,0,1,448,711.89c1.54-2,2.36-4,.06-6-3.65-3.25-2.48-6.15.69-8.88a5.66,5.66,0,0,0,2-7.76,5.29,5.29,0,0,0-.81-1.07c-2.35-3.57,1-7.16,3.27-10.21a3.85,3.85,0,0,1,5.22-1.55l.14.08c4,2.5,8.91,4.4,9.52,10,.66,6,4.47,6.26,7.87,3.42,3.95-3.3,5.72-2.69,8.23,1.3a6,6,0,0,0,10.28,1,201.93,201.93,0,0,0,14.79-25.1c2.13-4.15,5.05-10,3.59-13.38-2.38-5.42-.48-9.2,1.23-13.3a21.36,21.36,0,0,0,.56-15.76c-2.75-8.94.58-18.49.19-27.9-.21-5-.44-8.64-4.58-11a56.87,56.87,0,0,1-9.1-8.37c-4.63-4.06-9.86-7.56-14.24-12.13-.87-.92-2.7-.07-4.13.88-8.25,5.49-14.88,15.35-27.16,10.51-.35-.14-1.05.21-1.39.54C448.93,582.36,446,578.62,443.27,574.3Z"/></g><g id="Caminho_2264" data-name="Caminho 2264"><path class="cls-3" d="M1045.39,337.11a2.41,2.41,0,0,0-1,.69c-2.32,1-4.86,2-4.24,5.24s3.21,4.28,7,4.79c-5.44,2.54-6.41,6.82-7.85,10.78-2.23,1.84-7.93,1.14-4.67,7.05,1,1.81-2,2.42-3.47,3.24-5.53,3.07-11.14,6-16.6,9.25-4.68,2.77-4.65,4.55.09,7.14,2.24,1.22,2,2.77,1.2,4.46-3,6.56-3.16,14.24-7.75,20.18-.69.91-1.33,1.77-.31,2.54,1.71,1.31,3.61,2.63,1.11,4.55-1.8,1.39-3.59.18-5.52-.88-2.48-1.37-2.13-7.34-7.25-4.43a8.33,8.33,0,0,0-4.34,10.76c1,3.5.93,7.29-4.71,6.45-.47,8.59-10.39,12.83-10,21.93.22,4.6-1.13,8.14-7.07,6.92a4,4,0,0,0-4.7,1.79c-1.89,3.74-1.81,10.8-9.1,4.55-1-.83-4.12,2.14-3.91,5.31.15,2.39,1.06,6.07-2.2,6.37s-2.17-3.92-3.53-5.86c-1.14-1.65-1.73-3.91-3.22-5.06a6.94,6.94,0,0,0-8.52-.82c-2.34,1.84.32,4.15,1.14,6.07,1.23,3,2.86,5.77,4.55,9.07-4.74.46-6.77,3.84-9.75,6.93A109.83,109.83,0,0,1,910,500.93c-1.76,1.14-5.55.44-5.56,2.95a7.05,7.05,0,0,0,5.42,6.49c9.15,1.9,7.2,7.89,3.93,12.46-4.39,6.13-7.65,15.21-18.43,12.35-1.58-.41-2,.91-2.66,2.06-4.2,7.29-9.71,12-19,9.86-3.93-.91-7.34,1.9-11.08,2.42-5,.69-10.19,1.43-14.29-2.84V539c-5.9,4.11-13.09,5.56-8.78,15.21,2.55,5.73-3.71,11-4.42,17-.27,2.36-3.34.37-4.06-1.7-1.25-3.61-2.1-7.35-3.41-10.93a20.16,20.16,0,0,0-4.51-7.06c.73,7.87-4.58,13.48-6.07,20.31-.46,2.12-1.16,4.29-3.89,3.45-2.4-.73-1.52-3-1.14-4.59a20.59,20.59,0,0,1,3.77-10.64,6.07,6.07,0,0,0,.79-8.55,6.14,6.14,0,0,0-2.36-1.73c-4.09-2.14-5.14,2-6.66,5.08-1.83,3.7-2.87,9-10.52,8,4.42-3.17,5.12-7.54,8.83-10.37a10,10,0,0,0,1.92-11.35,49.24,49.24,0,0,1-2.16-6.48c-.4-2-.38-4.48,2-5.23,2.55-.81,2.39,2,3.3,3.32,1.31,1.89,2.37,3.94,3.73,5.77,1.8,2.42,0,8.23,6.09,6.69a10.27,10.27,0,0,0,8-10,66.39,66.39,0,0,0-.58-21.19,38.07,38.07,0,0,1,3.11-24.6,24.73,24.73,0,0,0,1.06-17.94c-4.17-13.42-2.37-25.1,8.75-34.67,1.7-1.46,4.39-2.89,3.48-6.68-7.64,3-11,10-15.87,16-3.39-6-4.68-11.33-.25-16.74a4.71,4.71,0,0,0,.82-5.66,30,30,0,0,1-2.77-15.64c0-3.84-1.07-6.42-5.31-2.8-5.31,4.55-10.58-2.5-16.46-.16,7.53-5,12-11.15,9.23-21.11a31.67,31.67,0,0,0,7.45,2.94c3.54.29,7.92.23,8.3-4.51.28-3.44,2.93-8.72-3.58-9.81-2.23-.38-2.65-1.26-1.93-2.93a24.38,24.38,0,0,0,2.09-17c-.74-2.49,2.31-3,3.41-4.55,2.16-3.06,3-6.74.28-9.05-2.86-2.47-5.57.59-7.78,2.65a8.59,8.59,0,0,0-2.84,6.83c.1,4.6-.23,9.2-.24,13.8a9,9,0,0,1-6.09,8.82c1.52-13.49.38-26.93,11.16-36.77,3.51-3.21,1.63-7.17,2.49-10.71.45-1.84-1.35-5.31,2.56-5.18a4.86,4.86,0,0,1,4.93,4.78v.1a26.55,26.55,0,0,0,1.06,5.93c1.75-5.67,7.58-10.1,5.31-16.69-.79-2.28-.66-9.88-6.6-3.18-1.25,1.41-2.92.67-3.77-.89-1.14-2.11-3.42-4.17-.6-6.73a29.64,29.64,0,0,0,8-15.36c.54-2,1.29-2.71,3.68-2.65,8.12.17,10.44-3,7.32-10.57a11.34,11.34,0,0,1,.1-8.53c1.14-4,3.52-9.2-4.28-10A4.47,4.47,0,0,1,841,249.4c.37-3.26,3.32-3.73,5.77-4,3.42-.42,8.09,1.14,4.11-5.41a4.53,4.53,0,0,1,2.58-5.86,4.59,4.59,0,0,1,2.11-.28c2,.17,3.34-1.09,4.88-1.3,7.93-1.07,9.4-4.78,5.09-10.94,1.52-3,6.28,2.28,6.34-3.08l1.78.31c.9,3.06,2.88,3.16,5.33,2,6.21,1.21,12.14-.71,18.12-1.69A51,51,0,0,1,933,225.64a312,312,0,0,1,46.76,36.26c12.28,10.94,26.2,18.72,43.9,16.62a25,25,0,0,1,16.9,3.32c-1.14,2.61.76,4.42,2,6.16a21.09,21.09,0,0,1,3.15,17.47,15.72,15.72,0,0,0,1,11,15.32,15.32,0,0,1,.9,12.41c0,1.85-.08,3.7-.11,5.54Zm-208,197.71c-3-2.75-5.09-2.79-7.2.52A7.48,7.48,0,0,0,837.39,534.82Z"/></g><g id="Caminho_2265" data-name="Caminho 2265"><path class="cls-4" d="M501.22,900.45c15,4.39,29,12.06,44.64,14.61a2.88,2.88,0,0,1,1.4.57c4.2,3.59,12.72,3.29,12.38,10.69-.38,8.14-7.83,11.59-15,16.33,13.4,3.5,25.39,8.21,39.17,4.38a98.85,98.85,0,0,1,26.42-4.66A14.27,14.27,0,0,1,623,947.62c.76,1,1.69,2.49,3,2,8.25-3.13,19.92,2.22,24.65-9.82.09-.24.94-.18,1.44-.27-10.38,26.87-23.89,51.12-51.17,64.84a37.24,37.24,0,0,0-19.82,24.87c-3.2,11.93-12.22,19.46-23.36,24.48-3,1.36-3.91.07-4.89-2.53a16.77,16.77,0,0,1,5.14-19.31c4-3.83,3.41-6.15-1-8.58a21.49,21.49,0,0,1-9.62-10.43c-.76-1.78-2.28-4.2-3.8-4.55-13.17-2.87-19.79-16.9-33.15-19.23a7.42,7.42,0,0,1-4.93-3.32c-3.72-5.67-7.26-9.56-14.38-3.83-2.59,2.08-5.73,1.18-7-3.61-2.87-10.57-12.22-15.44-20.56-21a5.08,5.08,0,0,0-6.31,1.07,11,11,0,0,1-7.8,2.53c-2.25-.14-4.93.34-6.07-2.19s1.46-3.38,2.83-4.75c16-16,31.54-32.42,46.42-49.48A10.69,10.69,0,0,1,501.22,900.45Zm38.16,40.44c-7-8.38-15-9.63-28.22-4.51,9.47,3.3,18.73,2.64,28.21,4.51Z"/></g><g id="Caminho_2266" data-name="Caminho 2266"><path class="cls-5" d="M443.27,574.31c2.76,4.3,5.66,8.05,11,3,.34-.32,1.05-.67,1.39-.54,12.28,4.84,18.91-5,27.16-10.5,1.43-1,3.26-1.8,4.13-.89,4.37,4.58,9.61,8.08,14.24,12.14a56.8,56.8,0,0,0,9.1,8.36c4.14,2.35,4.37,6,4.58,11,.37,9.4-2.94,19-.19,27.9a21.36,21.36,0,0,1-.56,15.76c-1.71,4.1-3.61,7.88-1.23,13.3,1.46,3.33-1.46,9.23-3.59,13.38a201.93,201.93,0,0,1-14.79,25.1,6,6,0,0,1-10.28-1c-2.51-4-4.28-4.6-8.23-1.31-3.41,2.84-7.2,2.58-7.87-3.41-.61-5.62-5.51-7.53-9.52-10a3.85,3.85,0,0,0-5.28,1.34,1,1,0,0,0-.08.14c-2.28,3-5.62,6.64-3.27,10.21a5.66,5.66,0,0,1-.13,8,6,6,0,0,1-1.07.81c-3.17,2.74-4.35,5.64-.69,8.89,2.3,2.05,1.48,4-.06,6a37.47,37.47,0,0,0-7.47,27.55c-5,1.67-7.18-.07-6.78-5.35a105.71,105.71,0,0,1,.67-12.19,40,40,0,0,0-3.18-26.66c-1.9-3.76-3.67-8.14.66-11.89a1.82,1.82,0,0,0,.53-2.52c0-.06-.09-.13-.15-.19-5.83-5.38-2.12-10.5.93-14.94,6.2-9,5-20.45,10.59-29.68,1.94-3.21-7.55-20.14-11.24-21.67-12.63-5.23-15.83-12-11.46-25.22,1.5-4.55.28-6-4.33-5.72a56.42,56.42,0,0,1-15.93-1.05c-.38-5.31,5.25-6.38,7-10,4.25-8.54,8.58-7.71,14.1-1.18,2.59,3.06,4.9,1.55,7.33-1.35,6.55-7.85,6.79-7.72,10.11,1.74C440.13,573.67,441.21,574.53,443.27,574.31Z"/></g><g id="Caminho_2268" data-name="Caminho 2268"><path class="cls-6" d="M679.08,146.65c-11.79,1.39-23.59,3-35.2-1-1.71-.61-4.7-.59-3.88-3.53.7-2.51,3.22-2.24,5.16-1.56,7.7,2.71,10.75-1.38,12.16-8.05,5.48-.82,1.14,5.43,5.8,7.79A125.52,125.52,0,0,0,679.08,146.65Z"/></g><g id="Caminho_2269" data-name="Caminho 2269"><path class="cls-6" d="M647.38,125.33A11.53,11.53,0,0,0,636,133.88c-.51,1.54-1,3.83-3.62,2.43-2.1-1.14-1.81-2.72-.65-4.47,3-4.55,4.81-10.58,11.83-10.52,3.95,0,1-5.69,4.85-5.53C649.84,119.17,646.21,122,647.38,125.33Z"/></g><g id="Caminho_2270" data-name="Caminho 2270"><path class="cls-7" d="M688.62,838.06c0-2.25,0-4.51,0-6.75-.16-3.68,1.27-6,5.19-5.38a17.2,17.2,0,0,0,9.71-2.5A80.72,80.72,0,0,1,688.62,838.06Z"/></g><g id="Caminho_2272" data-name="Caminho 2272"><path class="cls-6" d="M641.16,92.22c-7.14.38-9.74-3.25-8.75-10C640.45,81.07,641.53,86,641.16,92.22Z"/></g><g id="Caminho_2273" data-name="Caminho 2273"><path class="cls-7" d="M685.35,858.24a9,9,0,0,1-4.2-6.79c-.9-3.82,1.78-3.22,4.06-2.94C691.51,851.67,688.42,855,685.35,858.24Z"/></g><g id="Caminho_2274" data-name="Caminho 2274"><path class="cls-7" d="M946.28,510.08c-5.4-4.7-3.6-8,2.09-10.42C948.83,503.37,950.74,507.36,946.28,510.08Z"/></g><g id="Caminho_2275" data-name="Caminho 2275"><path class="cls-7" d="M688.12,893.78c-3-4-.45-7.49,1.14-11,3.41-.29,2.78,1.93,2.12,3.75C690.48,889,689.24,891.36,688.12,893.78Z"/></g><g id="Caminho_2276" data-name="Caminho 2276"><path class="cls-6" d="M812.78,211.23c-.53,3.91-3.41,4.93-7.64,6,1.79-3.67,3.2-6.57,4.63-9.46Z"/></g><g id="Caminho_2277" data-name="Caminho 2277"><path class="cls-8" d="M879,220.77c-2.46,1.2-4.44,1.1-5.34-2A8.74,8.74,0,0,1,879,220.77Z"/></g><g id="Caminho_2278" data-name="Caminho 2278"><path class="cls-6" d="M649.73,114.06c-.53-1.51-.21-2.58,1.52-2.88C651.5,112.55,651.41,113.72,649.73,114.06Z"/></g><g id="Caminho_2279" data-name="Caminho 2279"><path class="cls-9" d="M652,939.59c-.07-2.08.82-3.25,3-3.15C654.87,938.29,655,940.42,652,939.59Z"/></g><g id="Caminho_2280" data-name="Caminho 2280"><path class="cls-6" d="M819.48,210.35l-2-.3C818.39,208.59,819,208.74,819.48,210.35Z"/></g><g id="Caminho_2281" data-name="Caminho 2281"><path class="cls-6" d="M793,220.69a12.41,12.41,0,0,1,.41-4.5c.87-1.71-.06-5,3.55-4.76,1.14.07,2.92-1.31,3.26.11.52,2.13.95,5.55-.21,6.54a9.27,9.27,0,0,0-3.38,7.1c0,.58-1.76,1.71-2.17,1.52C791.72,225.33,793.53,222.71,793,220.69Z"/></g><g id="Caminho_2282" data-name="Caminho 2282"><path class="cls-6" d="M643.28,134.69l-1.76.07.13-.67c.56.24,1.14.47,1.71.74Z"/></g><g id="Caminho_2286" data-name="Caminho 2286"><path class="cls-10" d="M837.41,534.83a7.5,7.5,0,0,1-7.2.52C832.3,532,834.35,532.07,837.41,534.83Z"/></g><g id="Caminho_2263" data-name="Caminho 2263"><path class="cls-11" d="M498,766.25c.14-2.8.47-5.61.38-8.4a7.8,7.8,0,0,1,6.06-9c4.65-1.73,11.27-4.12,7.52-12.52-1.24-2.75,2.18-5.46,5.64-5.4a13.75,13.75,0,0,0,11-3.82c3.73-3.69,7.17.76,9.6,2.45A68.34,68.34,0,0,0,556.33,739c4.93,1.59,24.16-2.2,27.49-6a122.61,122.61,0,0,0,17.32-29.52,43.47,43.47,0,0,1,12.58-15.69,9.15,9.15,0,0,0,3.57-11.93c-1.78-4.28,1.22-7.58,3.85-10.36,4.25-4.5,4.93-8.66.22-13.18-1.61-1.54-3.84-3.08-2.4-5.8,1.22-2.28,3.66-1.57,5.54-1.45,6.56.44,8.16-6.19,12.62-8.88s7-4.23,10.89.12c2.5,2.77,6.32,7.85,7.37-1.21.28-2.42,2.32-2.38,4.14-2.32,2.88.09,3.63,2.32,4.5,4.5.75,1.87-1.14,5.4,2.5,5.36,3.07,0,3.63-2.69,4-5.53.62-5.25,5.48-8,9.06-10,3.15-1.8,6.89,1.94,8.68,5.69a3.77,3.77,0,0,0,.89,1.24c2.4,2,7.69,2.22,5.41,7.34-2.17,4.88-7,2.9-10.81,3.5-5.18.82-12.51-3.79-14.37,6.31-.52,2.85-6,.91-9.37,1.34.31-2.36,4.21-.75,3.68-3.48a5,5,0,0,0-3.54-3.71,3.37,3.37,0,0,0-4.44,1.72l0,.12c-.87,1.84-1.32,4.2-4,3.79-9.67-1.5-12,6.33-15.78,12.27-1.35,2.12-2,4.68-4.22,6.27-1.67,1.18-5.06,1.65-3.57,4.79,1,2.19,3.66,1.11,5.6,1.22,5.49.33,11.22-1.36,16.28,2.49a3.74,3.74,0,0,0,4.93-.75c4.41-4.49,7.63.17,10.71,1.92,3.36,1.92,1.89,6.05,1.6,9.16-.32,3.56-2.92,2-4.55,1.05a11.14,11.14,0,0,0-14.54,1.33c-1.81,1.68-5.1,2.81-4.18,5.45A6.64,6.64,0,0,0,650.1,700c7.39-.24,14.49,3.28,21.92,1.69,3.59-.76,2.76-3.24,1.69-5.69s-3.22-5.4.52-7.26c4.37-2.17,4.81,1.72,6,4.44,4,8.78,11.8,16.5,7.68,27.77a16.23,16.23,0,0,1-2.39-.55c-3.75-1.52-7.79-5.75-11.16,0-3.15,5.31.44,9.86,4.23,12.47,3.63,2.49,6.36,5.76,9.78,8.31,4.78,3.57,7.73,6.68.05,10.32-1.65.79-2.55,3.88-4.85,2.7a6.52,6.52,0,0,1-4-6.82c.55-4.42-.41-8.51-5-10-3.91-1.27-8.3-1-7.43,5,.93,6.43-2.41,6.74-7.48,7.13-10.86.83-20.86-4.68-31.74-3.61-1.82.18-4-2-5.81-3.38-1.62-1.23-2.34-4.57-5.28-1.85-2.35,2.18-4.27,4.5-2.77,8a3.7,3.7,0,0,0,4.39,2.82,3.81,3.81,0,0,0,1-.37,8,8,0,0,1,6.71.65c9.5,5.36,20.14,3.95,30.34,5,7.65.76,10.51,3,10.86,10.64.08,1.52-.49,3.53.27,4.53,5.93,7.76-.58,11.13-5.4,14.28a194.82,194.82,0,0,1-21.79,12c-2.41,1.16-3.92,1.9-3.71,4.71s2.36,3.79,4.6,4.36a9,9,0,0,0,9.13-2.76,19,19,0,0,1,15-6.05c9.34-.16,13.13-3.86,15.07-13.91.72-3.75,4.89-3.83,7.35-5.59-.11-2.87-3-1.62-4.22-3.64,2.71-1.71,6.23-3,5.4-7.79a5.21,5.21,0,0,1,4.63-5.31c10.87.42,14-8.15,18.28-15.17,2.14-3.49,6.1-6.67,2-12.1-1.9-2.55,1.4-6.66,3.44-9.29,1.65-2.13,4.45-.29,6,1a9.5,9.5,0,0,1,.88,12.31c-2.28,4.12.2,9.79-4.88,12.91-1,.63-.29,3.9,1.9,5.14a4.78,4.78,0,0,0,5.69.3,21,21,0,0,0,5.91-26.93c-2.22-4.78-5.55-10,.59-15.08,2.44-2,.68-5.25-.51-7.84-1-2.08-2.45-4.64-.26-6.29a5.59,5.59,0,0,1,7.69.57,14.19,14.19,0,0,0,13,4.61,8.54,8.54,0,0,1,6.29,2.07c2.18,1.76,6,5.2,7.66,2.65,1.94-3,6.31-6.3,2.36-12.06-4.33-6.31,1.21-15.44,8.92-16.34,3.14-.37,4.26,2.13,4.83,4.82.49,2.27-1,5.5,2.66,6.37a5.31,5.31,0,0,0,5.82-2.82,7.92,7.92,0,0,0,.05-8.7c-1.16-1.92-3.29-3.25-4.48-5.16a4,4,0,0,1,.13-5c1.39-1.33,3.16-.16,4.12.72,9,8.22,20.06,5.37,30.52,5.61,2.27,0,4.27-.53,4.32-3.17.13-6.69,1.86-13.41-4.87-18.88-6.52-5.31-6-9.57.34-15.2a33.94,33.94,0,0,0,10.86-12.51,3.26,3.26,0,0,1,3.62-2.16,5.16,5.16,0,0,0,6-4.1l0-.14a6.85,6.85,0,0,1,7-5c5.27.15,6.45-2.88,5.79-7.48a39.61,39.61,0,0,1,.55-17.89c1.46-4.89-2.51-11.38-6.16-13.87a17.2,17.2,0,0,1-7.54-16.56,65.87,65.87,0,0,0,0-8.43c-.53-4.65,1.34-6.71,5.94-6.43,4.09,4.27,9.27,3.52,14.29,2.84,3.74-.51,7.15-3.34,11.08-2.42,9.26,2.15,14.77-2.58,19-9.86.67-1.14,1.07-2.47,2.66-2.06,10.78,2.87,14-6.22,18.43-12.36,3.27-4.55,5.22-10.55-3.93-12.45a7.09,7.09,0,0,1-5.43-6.49c0-2.51,3.8-1.82,5.57-3a110.28,110.28,0,0,0,20.81-14.81c3-3.09,5-6.47,9.75-6.93-1.69-3.31-3.31-6.1-4.56-9.07-.8-1.93-3.46-4.25-1.13-6.07a6.94,6.94,0,0,1,8.52.82c1.49,1.14,2.07,3.42,3.22,5.06,1.36,1.94.27,6.19,3.53,5.86s2.35-4,2.2-6.37c-.21-3.19,2.94-6.15,3.91-5.31,7.31,6.25,7.21-.8,9.1-4.55a4,4,0,0,1,4.7-1.79c5.94,1.22,7.29-2.32,7.07-6.92-.42-9.1,9.5-13.34,10-21.93,5.64.82,5.66-3,4.71-6.45a8.33,8.33,0,0,1,4.35-10.76c5.12-2.91,4.76,3.06,7.25,4.43,1.92,1.06,3.71,2.27,5.51.88,2.5-1.92.61-3.24-1.11-4.55-1-.76-.38-1.63.32-2.54,4.59-5.94,4.71-13.62,7.74-20.19.78-1.68,1-3.23-1.2-4.46-4.75-2.58-4.77-4.36-.08-7.13,5.45-3.22,11.06-6.18,16.6-9.25,1.47-.82,4.46-1.43,3.46-3.24-3.25-5.92,2.43-5.2,4.67-7.05,6.9.38,7-6.75,10.53-10.08,2.27-2.16-3.08-3-4.18-4.91a19.64,19.64,0,0,1-1.28-5.82,2.44,2.44,0,0,1,1-.69c2.47.49,2.17-1.16,2.07-2.65l.11-5.55a7.12,7.12,0,0,1,9.06-.54,51,51,0,0,1-1.34,39.57c-2.79,6.1-2.27,12.93-5.74,18.78-5.9,10-15.07,16.89-22.75,25.18A160.89,160.89,0,0,1,1005,431.2a44.49,44.49,0,0,0-18.87,27.37c-2.33,12.66-10.48,23.22-19.64,32.36-2.5,2.49-6.55,4.21-7.59-2.1-.24-1.46-.75-3-2.82-3-2.41,0-3.08,1.74-3.09,3.59a18.16,18.16,0,0,1-4.53,10.3c-5.69,2.46-7.49,5.71-2.09,10.42,0,23.42-.17,46.86,0,70.28a53.19,53.19,0,0,1-3.51,14.71,54.84,54.84,0,0,0-1.9,21.09,10.45,10.45,0,0,1-5.47,10.47c-7.06,4.82-6.93,14.11-8.12,21.91a107.23,107.23,0,0,0,.46,16,10.09,10.09,0,0,1-6.66,10.8c-3.54,1.26-4.34,4.76-5.59,7.66-4,9.29-7.8,18.32-16.56,24.81-6.36,4.71-7.66,13-7.43,20.61.3,9.79-.23,11.63-9.77,13.88a37.67,37.67,0,0,0-11.75,5.12,7,7,0,0,0-4,7.5c1,5.6-2.51,6.43-6.83,6.45-7.15,0-14.3.17-21.45.19-4,0-8.07-.69-11.71,2.1a4.67,4.67,0,0,1-4.34.33c-7.45-5.4-15.14,1.39-22.73-.55-1.55-.37-7,.1-4.69,5.35a2.71,2.71,0,0,1-2.19,4c-7.43-.71-11.22,6.3-17.93,7.47,1.17,2.84,5.8,4.81,2.52,7.78-2.13,1.94-5,0-7.69-1.2-5.29-2.33-9.55-3.41-15.17,2.37-4.2,4.34-12.71,4.87-19,8.37a57.51,57.51,0,0,0-9.1,6.28,71.57,71.57,0,0,1-15.24,11,15.17,15.17,0,0,0-7.07,8.56,17.2,17.2,0,0,1-9.71,2.5c-3.92-.63-5.35,1.7-5.19,5.37.09,2.24,0,4.5,0,6.75-.75,3.61.35,7.82-3.41,10.45-2.27-.29-5-.88-4.06,2.94a9,9,0,0,0,4.2,6.79c-1.17,8.56,3.49,16.19,3.92,24.49-1.6,3.56-4.13,7-1.14,11.06a10.06,10.06,0,0,0-2.49,6.06c.09,9-4.85,14.77-12.14,19.26a81.34,81.34,0,0,0-18.43,17.33c-2.2-.09-3.09,1.07-3,3.16l.06-.06c-.5.08-1.35,0-1.44.28-4.72,12-16.39,6.68-24.65,9.81-1.28.49-2.21-1-3-2a14.28,14.28,0,0,0-12.77-5.25,98.85,98.85,0,0,0-26.42,4.66c-13.78,3.82-25.79-.88-39.17-4.38,7.14-4.74,14.6-8.19,15-16.33.34-7.4-8.19-7.1-12.38-10.69a3,3,0,0,0-1.4-.57c-15.64-2.55-29.61-10.22-44.64-14.61a102.34,102.34,0,0,1,21.61-16.14c.8-.49,2.11-.12,3-.56,7.52-3.85,18.69-4.93,20.93-13.44a42.62,42.62,0,0,0-3.69-33.89,7.63,7.63,0,0,0-10-3.2,4.87,4.87,0,0,1-6.18-.88c-1.63-1.74-.15-3.79.43-5.71a89.37,89.37,0,0,0,5-29.83,9.9,9.9,0,0,0-14.12-9.41,29.71,29.71,0,0,1-9.48,2.47c-4.66.35-7.61-1.84-7.68-6.4C500.89,777.51,498.62,772.05,498,766.25Zm353.45-201c.65,1.65-1.62,6.34,2.34,5,2.58-.87,8-.18,8-5,0-2.34-1.14-6.53-4.65-5.28-1.9.68-8.15-1.3-5.66,5.28Z"/><path class="cls-12" d="M625.52,951.19c-1.63,0-2.75-1.54-3.4-2.43a12.94,12.94,0,0,0-11.66-4.94,98.11,98.11,0,0,0-26.15,4.6c-12.14,3.38-22.79.41-34.06-2.74-1.94-.54-3.9-1.09-5.9-1.61l-3.07-.81,2.64-1.75c1-.67,2-1.31,3-1.94,5.92-3.76,11-7,11.33-13.27.17-3.74-2.3-4.94-6.35-6.59a20,20,0,0,1-5.54-3,1.36,1.36,0,0,0-.66-.25C536,914.92,526.87,911.39,518,908c-5.59-2.17-11.36-4.4-17.18-6.1l-2.33-.68,1.74-1.7a103.11,103.11,0,0,1,21.91-16.36,4.32,4.32,0,0,1,2.14-.49,3.56,3.56,0,0,0,.87-.11,61.72,61.72,0,0,1,7-2.84c6.07-2.19,11.8-4.26,13.23-9.69a41.33,41.33,0,0,0-3.56-32.82,6.2,6.2,0,0,0-8.16-2.63,6.21,6.21,0,0,1-7.84-1.21c-1.88-2-1-4.25-.31-5.9.16-.39.31-.79.43-1.17a88.23,88.23,0,0,0,4.91-29.41,8.52,8.52,0,0,0-8.08-8.94,8.11,8.11,0,0,0-4,.8,30.62,30.62,0,0,1-10,2.6,8.85,8.85,0,0,1-6.88-1.93,7.86,7.86,0,0,1-2.34-5.87A45.28,45.28,0,0,0,498,774a61.6,61.6,0,0,1-1.46-7.56v-.22c.05-.88.11-1.76.18-2.65.13-1.95.27-3.78.21-5.64a9.13,9.13,0,0,1,7.19-10.38c2.64-1,6.07-2.27,7.14-4.8.62-1.48.41-3.42-.63-5.75a4.32,4.32,0,0,1,.4-4.24,8,8,0,0,1,6.57-3.16,12.42,12.42,0,0,0,10-3.42c4-3.92,7.77-.69,10.05,1.22.48.41.93.79,1.35,1.08a67.24,67.24,0,0,0,17.74,9.24c4.33,1.39,23-2.19,26-5.63a121,121,0,0,0,17.09-29.13,45.06,45.06,0,0,1,13-16.27A7.82,7.82,0,0,0,616,676.47c-2.21-5.31,1.59-9.31,4.1-12,4-4.27,4.1-7.51.27-11.18l-.54-.51c-1.56-1.43-3.92-3.6-2.13-7,1.48-2.77,4.22-2.48,6-2.28l.84.08c3.46.18,5.27-1.93,7.35-4.43a18.16,18.16,0,0,1,4.45-4.24c4.33-2.61,8-4.83,12.68.38l.54.6c.7.79,2.53,2.87,3.22,2.87h0s.72-.43,1.12-3.9c.43-3.74,3.95-3.62,5.59-3.57,3.7.11,4.83,3,5.66,5.1a6.75,6.75,0,0,1,.4,3,4.24,4.24,0,0,0,.1,1.59,2.8,2.8,0,0,0,.79.13c1.6,0,2.17-1,2.56-4.28.69-5.89,5.85-8.84,9.61-11a5.07,5.07,0,0,1,4.21-.48c3,.92,5.35,4.07,6.61,6.7a2.38,2.38,0,0,0,.58.82,10.27,10.27,0,0,0,2.06,1.16c2.2,1,5.89,2.82,3.68,7.8-2,4.41-5.76,4.31-8.84,4.24a17.62,17.62,0,0,0-3,.08,18.24,18.24,0,0,1-4.89-.11c-4.33-.49-7.19-.8-8.31,5.27-.58,3.18-4.17,2.87-7.06,2.6a18.6,18.6,0,0,0-3.53-.09l-1.83.23.24-1.83c.27-2.08,2.09-2.53,3.07-2.76a4.78,4.78,0,0,0,.77-.24,4.1,4.1,0,0,0-2.68-2.65,2.11,2.11,0,0,0-1.67-.1,1.93,1.93,0,0,0-1.07,1c-.2.43-.32.71-.44,1-.67,1.59-1.76,4.21-5.15,3.75-7.06-1.1-9.58,3.33-12.48,8.45-.61,1.08-1.22,2.16-1.88,3.18a19.89,19.89,0,0,0-1,1.93,9.43,9.43,0,0,1-5.13,5.61c-2,1-2,1.19-1.54,2.15.27.57.73.65,2.53.48a13.31,13.31,0,0,1,1.87-.08c1.42.08,2.86,0,4.3,0,4.24-.17,8.65-.34,12.77,2.8a2.29,2.29,0,0,0,3-.53c4.4-4.51,8.16-1.63,10.63.28a19.64,19.64,0,0,0,1.87,1.32c3.59,2.05,3,6,2.55,8.8-.09.59-.18,1.17-.24,1.72a3.64,3.64,0,0,1-1.71,3.18c-1.61.86-3.44-.17-4.78-.93a9.92,9.92,0,0,0-13,1,17.81,17.81,0,0,1-1.84,1.43c-1.9,1.32-2.28,1.8-2,2.55a5,5,0,0,0,4.82,2.89,45.76,45.76,0,0,1,9.6,1.07c4.15.77,8.07,1.5,12.07.65.75-.16,1.24-.41,1.39-.7.34-.64-.4-2.31-.71-3-.14-.32-.3-.64-.46-1-1-2.07-2.85-5.9,1.65-8.13a5.15,5.15,0,0,1,4.26-.52c1.81.71,2.53,2.62,3.17,4.31.17.45.34.91.53,1.33.94,2.06,2.12,4.12,3.27,6.11,3.84,6.67,7.81,13.56,4.46,22.74l-.41,1.1-1.16-.18a18,18,0,0,1-2.59-.61,25.1,25.1,0,0,1-2.65-1.31c-3.3-1.81-5-2.54-6.86.64-3,5.1,1.66,9.1,3.82,10.58a48.6,48.6,0,0,1,5.52,4.63,54.28,54.28,0,0,0,4.3,3.71c2.85,2.12,5.6,4.43,5.32,7.24-.21,2.07-2,3.82-5.51,5.51a4.64,4.64,0,0,0-1.09,1c-.89,1-2.54,2.9-5,1.64a7.93,7.93,0,0,1-4.71-8.27c.85-6.88-2.8-8.07-4-8.47-2.23-.72-4.09-.74-4.94,0s-.81,2.26-.64,3.44c.41,2.85.08,4.82-1,6.22-1.64,2.05-4.47,2.27-7.74,2.52-5.55.44-10.86-.72-16-1.85-5.35-1.17-10.4-2.28-15.71-1.75-2.11.21-4-1.4-5.72-2.8-.37-.31-.74-.6-1.08-.86a8.06,8.06,0,0,1-1.44-1.56c-.26-.33-.79-1-1-1h0s-.34,0-1,.66c-2.4,2.22-3.49,3.89-2.42,6.41a2.38,2.38,0,0,0,2.78,2,2.25,2.25,0,0,0,.61-.23,9.47,9.47,0,0,1,8.11.67c6.66,3.76,13.87,4,21.5,4.31,2.71.1,5.51.21,8.26.48,8.7.87,11.77,3.89,12.15,12,0,.54,0,1.15-.07,1.75a5.46,5.46,0,0,0,0,2c2.14,2.79,3,5.32,2.56,7.7-.66,3.73-4.23,6-7.38,8l-.93.61a196.6,196.6,0,0,1-22,12.12c-2.45,1.18-3,1.53-2.89,3.32s1,2.44,3.53,3.08a7.59,7.59,0,0,0,7.72-2.32,20.21,20.21,0,0,1,16.2-6.52c8.42-.16,11.75-3.26,13.58-12.76.64-3.32,3.34-4.42,5.51-5.31.53-.21,1-.42,1.51-.65a5,5,0,0,0-.76-.27,4.68,4.68,0,0,1-2.94-2l-.73-1.2,1.18-.74c.35-.23.72-.44,1.09-.66,2.7-1.6,4.2-2.64,3.67-5.68a6.69,6.69,0,0,1,5.88-7c8.7.37,12-5.42,15.47-11.5.57-1,1.15-2,1.75-3,.39-.64.84-1.27,1.29-1.9,2-2.77,3.55-5,.83-8.61-2.49-3.34,1-7.82,3.29-10.79a3.94,3.94,0,0,1,2.8-1.72c2-.21,4,1.15,5.41,2.33a10.87,10.87,0,0,1,1.09,14.22,12.5,12.5,0,0,0-1,4.52c-.27,3-.59,6.34-4.1,8.62a3.54,3.54,0,0,0,1.63,2.83,3.48,3.48,0,0,0,4.2.36,19.65,19.65,0,0,0,5.45-25.06l-.64-1.33c-2.17-4.55-4.89-10.21,1.58-15.54,1.32-1.09.6-2.93-.65-5.6l-.49-1.05c-.94-2-2.52-5.31.42-7.52a7,7,0,0,1,9.59.75,12.67,12.67,0,0,0,11.74,4.17,10.2,10.2,0,0,1,7.46,2.4l.44.36c1.2,1,3.76,3,4.78,2.84.06,0,.16,0,.3-.25.37-.57.82-1.16,1.29-1.77,2-2.6,3.74-4.85,1.09-8.71a10.65,10.65,0,0,1-.66-10.64,13.72,13.72,0,0,1,10.59-7.92c3.3-.39,5.46,1.6,6.39,5.93a9.48,9.48,0,0,1,.14,2.37c0,2.07.09,2.59,1.45,2.91a3.86,3.86,0,0,0,4.23-2.06,6.62,6.62,0,0,0,.13-7.29,13.37,13.37,0,0,0-2.07-2.38,16.1,16.1,0,0,1-2.43-2.81,5.34,5.34,0,0,1,.27-6.69c1.71-1.64,4-1.38,6.14.59,6.65,6,14.41,5.73,22.61,5.39,2.34-.1,4.68-.2,7-.14,1.61.06,2.18-.28,2.46-.55.1-.09.39-.37.41-1.23,0-1.09.08-2.18.15-3.27.31-5.55.59-10.35-4.49-14.48-3.48-2.83-5.13-5.43-5.19-8.19s1.68-5.8,5.48-9.17a33,33,0,0,0,10.54-12.09,4.58,4.58,0,0,1,5.11-2.93,3.74,3.74,0,0,0,4.42-3A8.28,8.28,0,0,1,849.9,616c1.72,0,3-.3,3.64-1.05s1-2.48.66-4.81a41.29,41.29,0,0,1,.58-18.46c1.29-4.34-2.44-10.18-5.58-12.32a18.73,18.73,0,0,1-8.15-17.93,63.34,63.34,0,0,0,0-8.15c-.32-2.76.17-4.8,1.47-6.17s3.25-1.94,6-1.77l.55,0,.39.4c3.56,3.71,8.11,3.09,12.94,2.43a17.81,17.81,0,0,0,4-1.2c2.28-.88,4.87-1.88,7.72-1.21,7.41,1.71,12.77-1.12,17.41-9.19l.26-.47c.54-1,1.54-2.9,4-2.25,8,2.11,11.25-3,14.72-8.5.73-1.14,1.45-2.27,2.19-3.31,2.09-2.91,2.89-5.43,2.24-7.09-.58-1.48-2.36-2.54-5.3-3.15a8.54,8.54,0,0,1-6.55-7.8c0-2.87,2.69-3.38,4.29-3.68a6.4,6.4,0,0,0,1.93-.55,110.22,110.22,0,0,0,20.62-14.66c.47-.5,1-1.07,1.48-1.63,1.92-2.15,3.9-4.37,7.07-5.29l-.65-1.24c-1.12-2.13-2.18-4.13-3.06-6.24a10.38,10.38,0,0,0-.77-1.34c-.93-1.49-2.68-4.26.06-6.4a8.36,8.36,0,0,1,10.38.91,9.26,9.26,0,0,1,2.38,3.43,14.4,14.4,0,0,0,1,1.85,7.75,7.75,0,0,1,1.05,3.2c.38,2.13.57,2.1,1.17,2.06s.77-.26.83-.33c.48-.59.31-2.22.19-3.42,0-.38-.08-.77-.1-1.12a7.39,7.39,0,0,1,3.64-6.64,2.24,2.24,0,0,1,2.62.17c2.58,2.2,3.63,2.22,4,2.11.76-.21,1.36-2,1.84-3.43a21.77,21.77,0,0,1,1.08-2.8,5.43,5.43,0,0,1,6.4-2.51c1.78.37,3.17.21,4-.49s1.34-2.48,1.22-5c-.25-5.28,2.57-9,5.3-12.55,2.3-3,4.48-5.87,4.68-9.52l.08-1.56,1.54.23c1.09.15,2.52.21,3.12-.47s.57-2.14,0-4.19a9.67,9.67,0,0,1,5.14-12.45,5.15,5.15,0,0,1,4-.75c1.69.5,2.51,2.09,3.17,3.36a4.87,4.87,0,0,0,1.3,1.88l.48.27c2,1.12,2.69,1.35,3.48.74a2,2,0,0,0,.66-.7c-.07-.32-1.07-1.08-1.61-1.49a2.68,2.68,0,0,1-1.21-1.82,3.84,3.84,0,0,1,1.11-2.82c2.61-3.38,3.68-7.37,4.82-11.59a51.45,51.45,0,0,1,2.76-8.33c.7-1.51.59-2-.59-2.62-2.12-1.15-4.29-2.61-4.32-4.71s2.1-3.65,4.19-4.89c3.74-2.21,7.56-4.3,11.37-6.39q2.64-1.43,5.27-2.89c.37-.2.83-.4,1.31-.6a6.67,6.67,0,0,0,1.67-.89c-1.21-1.89-1.51-3.48-1-4.83.66-1.75,2.49-2.4,4-2.91a7.12,7.12,0,0,0,2-.91l.43-.35.56,0c3.55.18,4.73-1.83,6.45-5.14a16.63,16.63,0,0,1,3-4.5,14.6,14.6,0,0,0-1.35-.81,7.3,7.3,0,0,1-3-2.41,20.82,20.82,0,0,1-1.47-6.43l0-.59.39-.45a3.91,3.91,0,0,1,1.6-1.09l.37-.13.39.08a2.2,2.2,0,0,0,.64.05c-.18.05-.22-.55-.24-.9l0-.44.12-6.15.44-.41a8.56,8.56,0,0,1,10.87-.65l.34.25.15.39a52.7,52.7,0,0,1-1.37,40.67,37,37,0,0,0-2.34,8.27c-.72,3.56-1.46,7.24-3.47,10.65-4.15,7-9.91,12.58-15.49,18-2.49,2.4-5.07,4.89-7.45,7.46a161.65,161.65,0,0,1-22.07,19.45,42.87,42.87,0,0,0-18.32,26.53c-2.65,14.35-12.7,25.75-20,33.06-1,1-3.75,3.36-6.5,2.47-1.83-.59-3-2.39-3.49-5.35-.28-1.71-.74-1.84-1.42-1.84s-1.65.18-1.66,2.18a19.61,19.61,0,0,1-4.9,11.24L949,501c-2.73,1.18-4.27,2.46-4.45,3.69-.23,1.44,1.35,3.16,2.72,4.35l.49.43,0,19.17c0,17-.09,34.51.06,51.75a54.2,54.2,0,0,1-3.61,15.24,53.15,53.15,0,0,0-1.8,20.42,11.82,11.82,0,0,1-6.23,11.88c-5.24,3.59-6.06,10.38-6.86,16.94-.16,1.33-.32,2.65-.51,3.93a107.1,107.1,0,0,0,.46,15.67,11.56,11.56,0,0,1-7.6,12.28c-2.36.84-3.2,3-4.16,5.42-.19.5-.39,1-.59,1.46l-.19.44c-4.06,9.43-7.9,18.34-16.84,25-4.89,3.63-7.13,10-6.85,19.42.32,10.42-.58,12.89-10.86,15.31a36.16,36.16,0,0,0-11.3,4.93,5.68,5.68,0,0,0-3.34,6.08c.45,2.53.11,4.44-1,5.83-1.65,2-4.56,2.26-7.18,2.27-3.31,0-6.61.06-9.92.09-3.84,0-7.69.09-11.54.1-.68,0-1.36,0-2,0-3.3-.09-6.18-.17-8.81,1.85a6.13,6.13,0,0,1-5.78.5c-4.08-2.92-8.08-2-12.31-1.07-3.3.73-6.7,1.5-10.2.6-.59-.13-2.47,0-3.17.79-.55.64-.23,1.78.13,2.62a3.94,3.94,0,0,1,.32,3,4.14,4.14,0,0,1-3.72,3c-3.91-.33-6.67,1.52-9.59,3.51a26.37,26.37,0,0,1-6.16,3.42c.2.25.42.49.64.73,1.43,1.59,3.83,4.26.57,7.22-2.52,2.27-5.54.81-8-.37-.42-.2-.84-.4-1.25-.58-4.89-2.16-8.47-3.18-13.57,2.06-2.7,2.8-6.76,4.07-11.06,5.43a44.34,44.34,0,0,0-8.23,3.19,56.32,56.32,0,0,0-8.88,6.13,72.45,72.45,0,0,1-15.48,11.12,13.71,13.71,0,0,0-6.39,7.75l-.16.5-.45.27a18.64,18.64,0,0,1-10.51,2.71,3.33,3.33,0,0,0-2.83.41c-.82.74-.93,2.3-.88,3.48.07,1.57.05,3.14,0,4.71v2.1a24.2,24.2,0,0,0-.35,3.18c-.19,2.88-.39,6.14-3.68,8.44l-.45.32-1-.13a6,6,0,0,0-2.2-.07,3.16,3.16,0,0,0,.12,1.33,7.8,7.8,0,0,0,3.57,5.91l.78.48-.13.92c-.63,4.67.57,9,1.85,13.68a48.49,48.49,0,0,1,2.09,10.54l0,.34-.14.32q-.36.78-.75,1.56c-1.61,3.28-2.49,5.43-.54,8.06l.68.93-.76.86a8.66,8.66,0,0,0-2.14,5.21c.09,8.43-4,14.94-12.81,20.38a79.56,79.56,0,0,0-18,17l-.45.58h-.16l-4.81,5.13v-.17c-3.79,6.49-10.16,6.73-15.85,7-3,.11-5.92.22-8.41,1.16A2.8,2.8,0,0,1,625.52,951.19ZM612,940.88a15.63,15.63,0,0,1,12.16,5.88l.23.32c.28.38.87,1.18,1.15,1.26,2.9-1.12,6.15-1.24,9.28-1.36,6.28-.23,11.69-.43,14.53-7.65a1.66,1.66,0,0,1,1.37-1,4,4,0,0,1,1.08-2.15,3.93,3.93,0,0,1,2.59-1.07A82.25,82.25,0,0,1,672.73,918c7.95-4.9,11.59-10.63,11.52-18.06a11.64,11.64,0,0,1,2.16-6.16c-2.19-3.8-.49-7.26.89-10.08.19-.39.38-.78.56-1.17a47.69,47.69,0,0,0-2-9.59c-1.22-4.44-2.49-9-2-13.94a10.53,10.53,0,0,1-4.11-7.35,3.93,3.93,0,0,1,.59-3.71c1.13-1.25,3-1,4.49-.84,1.76-1.5,1.9-3.58,2-6a23.65,23.65,0,0,1,.37-3.29l0-1.83c0-1.52,0-3.05,0-4.57-.11-2.61.51-4.53,1.84-5.72a5.77,5.77,0,0,1,5-1.12,15.8,15.8,0,0,0,8.31-2,16.5,16.5,0,0,1,7.55-8.85,69.9,69.9,0,0,0,15-10.75,59.92,59.92,0,0,1,9.38-6.49A47.18,47.18,0,0,1,743,793c3.94-1.24,7.67-2.41,9.87-4.69,6.33-6.52,11.54-5,16.76-2.68.44.19.89.41,1.33.62,2.34,1.13,3.84,1.75,4.84.82s1-1.2-.78-3.21a10.78,10.78,0,0,1-2.1-3l-.68-1.64L774,779c2.61-.46,4.77-1.94,7.07-3.5,3.2-2.19,6.55-4.44,11.24-4,0,0,.15-.07.31-.16a1.24,1.24,0,0,0,.62-.78,1.27,1.27,0,0,0-.12-1c-1.3-3-.59-4.75.23-5.72,1.67-2,4.85-2,6-1.71,2.85.74,5.78.07,8.89-.62,4.44-1,9.47-2.12,14.33,1.4a3.34,3.34,0,0,0,2.76-.38c3.32-2.56,7-2.46,10.51-2.36l2,0c3.84,0,7.67-.05,11.51-.09,3.31,0,6.63-.08,9.94-.09,1.85,0,4.09-.16,5-1.26.57-.68.71-1.87.42-3.52a8.43,8.43,0,0,1,4.76-9,38.14,38.14,0,0,1,12-5.21c8.71-2.06,9-3.15,8.68-12.46-.31-10.3,2.38-17.63,8-21.79,8.31-6.16,12-14.73,15.91-23.8l.18-.43c.2-.45.38-.91.56-1.38,1.07-2.71,2.27-5.78,5.86-7.06a8.72,8.72,0,0,0,5.73-9.28,109.26,109.26,0,0,1-.47-16.27c.21-1.4.36-2.69.52-4,.83-6.86,1.77-14.63,8.22-19a9.06,9.06,0,0,0,4.86-9.14,55.93,55.93,0,0,1,1.94-21.65A52.39,52.39,0,0,0,945,580.26c-.16-17.12-.12-34.66-.08-51.63l0-17.89c-2.47-2.29-3.51-4.42-3.19-6.5.35-2.25,2.26-4.12,5.84-5.73a16.62,16.62,0,0,0,4-9.26c0-3,1.69-4.85,4.49-4.87,2.36,0,3.78,1.42,4.24,4.23.28,1.74.85,2.87,1.56,3.09s2.28-.44,3.61-1.77c11.23-11.2,17.34-21.25,19.25-31.62A45.68,45.68,0,0,1,1004.18,430,160.59,160.59,0,0,0,1025.8,411c2.42-2.62,5-5.14,7.55-7.57,5.43-5.24,11.06-10.67,15-17.36,1.77-3,2.43-6.29,3.13-9.77a40.32,40.32,0,0,1,2.54-8.88,49.88,49.88,0,0,0,1.46-38.06,5.71,5.71,0,0,0-6.48.29l-.1,4.91c.1,1.18.2,2.58-.81,3.48a3,3,0,0,1-2.19.64,17.86,17.86,0,0,0,1.11,4.5,10.23,10.23,0,0,0,1.83,1.14c1.37.75,2.79,1.53,3,3a2.66,2.66,0,0,1-1,2.33,14.35,14.35,0,0,0-2.46,3.79c-1.54,3-3.45,6.7-8.52,6.7h-.09a11.71,11.71,0,0,1-2.37,1.05c-1,.33-2.05.72-2.25,1.25-.08.22-.18.92.76,2.62a2.62,2.62,0,0,1,.24,2.17c-.47,1.36-1.93,2-3.22,2.52a9.33,9.33,0,0,0-1,.48c-1.75,1-3.52,1.94-5.28,2.9-3.79,2.07-7.58,4.14-11.29,6.34-2.73,1.61-2.8,2.32-2.8,2.39s.09.77,2.84,2.27c3.78,2.06,2.3,5.25,1.82,6.3a49.52,49.52,0,0,0-2.61,7.88c-1.16,4.31-2.35,8.76-5.31,12.58-.11.16-.32.43-.45.63,1.42,1.08,2.75,2.15,2.75,3.77a3.79,3.79,0,0,1-1.76,2.95c-2.4,1.85-4.83.49-6.61-.51l-.46-.26a6.64,6.64,0,0,1-2.46-3.07c-.45-.87-.92-1.78-1.45-1.94a3.09,3.09,0,0,0-2,.57,6.93,6.93,0,0,0-3.72,9c.91,3.3.71,5.53-.57,7a5.68,5.68,0,0,1-4.2,1.53c-.65,3.81-2.9,6.76-5.09,9.64-2.53,3.31-4.92,6.44-4.71,10.69.16,3.5-.57,5.89-2.23,7.3s-3.73,1.67-6.56,1.08a2.64,2.64,0,0,0-3.18,1.12,17.23,17.23,0,0,0-.88,2.34c-.73,2.18-1.56,4.65-3.79,5.27-1.71.46-3.68-.3-6.23-2.4a4.79,4.79,0,0,0-1.92,3.84q0,.48.09,1c.18,1.78.41,4-.82,5.5a3.92,3.92,0,0,1-2.75,1.36c-3.5.34-4-2.74-4.25-4.4a6.11,6.11,0,0,0-.58-2.07,16.08,16.08,0,0,1-1.24-2.2,7.57,7.57,0,0,0-1.68-2.54,5.57,5.57,0,0,0-6.9-.75c-.42.34-.54.58.71,2.56a12.64,12.64,0,0,1,1,1.77c.83,2,1.86,3.93,2.95,6,.51.95,1,1.94,1.55,3l.95,1.86-2.08.2c-3.3.31-5,2.26-7.23,4.72-.52.59-1,1.19-1.62,1.78a112.61,112.61,0,0,1-21.15,15.07,8.28,8.28,0,0,1-2.85.89c-1.68.32-2,.49-2,.81a5.67,5.67,0,0,0,4.33,5.11c3.9.8,6.38,2.46,7.33,4.89,1,2.63.13,6-2.57,9.78-.72,1-1.41,2.08-2.11,3.18-3.5,5.51-7.84,12.38-17.85,9.72-.32,0-.59.55-.75.84L894,538c-3.33,5.79-9.08,13.17-20.51,10.53-2-.48-4,.29-6.06,1.1a20.62,20.62,0,0,1-4.51,1.34c-5,.69-10.6,1.44-15.09-2.85a4.19,4.19,0,0,0-3.22.91c-.68.71-.92,2.05-.7,4a68.11,68.11,0,0,1,0,8.69A15.92,15.92,0,0,0,850.79,577c3.86,2.63,8.47,9.64,6.73,15.45a38.31,38.31,0,0,0-.51,17.21c.47,3.32,0,5.64-1.34,7.18s-3.19,2-5.89,2a5.37,5.37,0,0,0-5.56,3.93,6.58,6.58,0,0,1-7.7,5.23,1.83,1.83,0,0,0-2,1.22,35.51,35.51,0,0,1-11.39,13.23c-3,2.67-4.44,4.89-4.39,6.88,0,1.83,1.39,3.81,4.13,6,6.21,5,5.87,11,5.53,16.85-.06,1.06-.12,2.11-.14,3.16a4.35,4.35,0,0,1-1.28,3.23,6.2,6.2,0,0,1-4.49,1.35c-2.26-.06-4.53,0-6.81.13-8.43.35-17.13.7-24.64-6.12-.56-.51-1.61-1.29-2.17-.74a2.52,2.52,0,0,0,0,3.1,13.71,13.71,0,0,0,2.1,2.41,15.18,15.18,0,0,1,2.48,2.9,9.34,9.34,0,0,1-.08,10.22,6.68,6.68,0,0,1-7.3,3.42c-3.77-.9-3.71-3.93-3.68-5.75a8.27,8.27,0,0,0-.08-1.71c-.71-3.32-1.77-3.87-3.27-3.7a10.81,10.81,0,0,0-8.34,6.26,7.86,7.86,0,0,0,.42,7.86c3.82,5.57.81,9.48-1.19,12.06-.41.54-.81,1.06-1.14,1.57a3.23,3.23,0,0,1-2.26,1.52c-2.34.34-5-1.84-7-3.45l-.47-.39a7.26,7.26,0,0,0-5.28-1.75,15.47,15.47,0,0,1-14.21-5.09,4.18,4.18,0,0,0-5.72-.41c-1,.73-.73,1.69.4,4.06l.5,1.07c1.19,2.55,3,6.42-.13,9-4.74,3.92-2.92,7.72-.81,12.12l.6,1.28a22.47,22.47,0,0,1-6.34,28.66,6.18,6.18,0,0,1-7.45-.34,6.27,6.27,0,0,1-2.86-5,2.59,2.59,0,0,1,1.13-2.44c2.51-1.54,2.72-3.78,3-6.6a14.26,14.26,0,0,1,1.39-5.79,8.1,8.1,0,0,0-.64-10.62,5.41,5.41,0,0,0-3.18-1.57.92.92,0,0,0-.68.41c-1.72,2.23-4.62,6-3.42,7.57,4,5.31,1.21,9.16-.79,12-.42.58-.83,1.15-1.19,1.74-.58,1-1.14,1.94-1.71,2.92-3.56,6.25-7.69,13.29-17.83,12.92a3.75,3.75,0,0,0-3.16,3.85c.77,4.36-1.82,6.44-4.15,7.88a3.57,3.57,0,0,1,3,3.54l0,.76-.62.45a14.94,14.94,0,0,1-3,1.5c-2.14.87-3.47,1.49-3.8,3.21-2.08,10.8-6.53,14.88-16.43,15.06a17.55,17.55,0,0,0-14,5.59,10.42,10.42,0,0,1-10.55,3.16c-1.72-.43-5.34-1.34-5.65-5.62-.28-3.8,2.05-4.91,4.51-6.1a192.17,192.17,0,0,0,21.64-11.94l.95-.61c2.78-1.78,5.67-3.63,6.11-6.13.27-1.53-.41-3.38-2-5.48-.84-1.11-.72-2.61-.62-3.93a11.17,11.17,0,0,0,.06-1.39c-.31-6.66-2.28-8.57-9.59-9.3-2.65-.26-5.41-.37-8.08-.47-7.63-.28-15.53-.57-22.81-4.69a6.66,6.66,0,0,0-5.54-.54,4,4,0,0,1-1.14.42,5.11,5.11,0,0,1-6.09-3.9c-2-4.59,1.37-7.7,3.18-9.37a4.17,4.17,0,0,1,3.21-1.41,4.41,4.41,0,0,1,3,2.15,6.83,6.83,0,0,0,.9,1c.38.28.77.6,1.17.92,1.17,1,2.72,2.32,3.64,2.18,5.76-.57,11.27.64,16.6,1.8,5.16,1.13,10,2.19,15.16,1.8,2.62-.21,4.88-.38,5.75-1.46.58-.73.73-2.09.45-4-.4-2.76.14-4.78,1.62-6,2.12-1.78,5.32-1.25,7.65-.5,3.23,1.06,6.88,3.91,5.94,11.52a5.13,5.13,0,0,0,3.09,5.34c.48.25.61.3,1.68-.93a6.32,6.32,0,0,1,2-1.74c3.27-1.55,3.84-2.68,3.9-3.22.14-1.45-2.89-3.71-4.19-4.68a53.92,53.92,0,0,1-4.53-3.91,46.77,46.77,0,0,0-5.2-4.37c-5.86-4-7.6-9.4-4.66-14.36,3.37-5.69,7.77-3.28,10.68-1.69a22.4,22.4,0,0,0,2.24,1.13l.9.24c2.19-7.38-1.13-13.13-4.62-19.2-1.19-2.05-2.41-4.17-3.4-6.35-.21-.48-.41-1-.6-1.51-.43-1.13-.91-2.42-1.55-2.67a2.75,2.75,0,0,0-2,.43c-1.78.88-1.65,1.66-.36,4.34.18.37.35.72.5,1.07.77,1.76,1.52,3.77.65,5.47a4.55,4.55,0,0,1-3.34,2.18c-4.55,1-8.94.16-13.18-.64a41.88,41.88,0,0,0-9-1,8.16,8.16,0,0,1-7.54-4.65c-1.1-3.09,1.37-4.82,3-6a14.74,14.74,0,0,0,1.48-1.13,12.59,12.59,0,0,1,16.34-1.44,6.3,6.3,0,0,0,2.12.88,3.84,3.84,0,0,0,.19-.91c0-.61.15-1.24.25-1.89.46-3,.62-4.9-1.15-5.91a18.6,18.6,0,0,1-2.19-1.53c-2.77-2.12-4.34-3.13-6.79-.63a5.13,5.13,0,0,1-6.72,1c-3.39-2.58-7.09-2.43-11-2.29a43.76,43.76,0,0,1-4.58,0,12.08,12.08,0,0,0-1.43.07c-1.67.17-4.18.4-5.37-2.1-1.74-3.67,1.37-5.19,2.85-5.92a6.6,6.6,0,0,0,3.84-4.32c.37-.74.75-1.49,1.19-2.19.63-1,1.22-2,1.8-3.05,3-5.28,6.39-11.26,15.4-9.86,1,.17,1.29-.13,2.09-2q.2-.5.42-1a4.78,4.78,0,0,1,2.68-2.62,4.72,4.72,0,0,1,3.67.09A6.33,6.33,0,0,1,665,648.7a2.73,2.73,0,0,1-.55,2.53c1.45.12,3.36.22,3.47-.33,1.59-8.68,7.26-8.06,11.42-7.59a16.68,16.68,0,0,0,4.12.14,18.48,18.48,0,0,1,3.56-.13c3.19.09,5,0,6.17-2.54,1-2.35.27-2.85-2.31-4.08a13.22,13.22,0,0,1-2.72-1.6,5.3,5.3,0,0,1-1.27-1.75c-1.22-2.56-3.19-4.66-4.88-5.19a2.12,2.12,0,0,0-1.8.16c-3.57,2-7.82,4.47-8.35,8.94-.27,2.35-.79,6.74-5.35,6.78a3.53,3.53,0,0,1-2.86-1c-1-1-.95-2.5-.9-3.68a4.92,4.92,0,0,0-.08-1.56c-1.05-2.67-1.56-3.57-3.22-3.62-2.4-.06-2.59.19-2.69,1.06-.3,2.57-.92,5.6-3.1,6.29s-4.38-1.63-6.21-3.7l-.52-.59c-3.12-3.46-4.73-2.48-9,.1a16,16,0,0,0-3.81,3.68c-2.26,2.71-4.82,5.79-9.72,5.45l-1-.09c-1.89-.21-2.7-.19-3.22.79-.7,1.31-.13,2,1.54,3.56l.59.55c5,4.79,4.94,9.75-.17,15.18-2.86,3-4.93,5.58-3.58,8.84A10.57,10.57,0,0,1,614.45,689a42.23,42.23,0,0,0-12,15.08,123.78,123.78,0,0,1-17.5,29.79c-3.84,4.43-23.57,8.27-29,6.52a69.94,69.94,0,0,1-18.48-9.62c-.46-.32-1-.76-1.54-1.22-2.79-2.35-4.32-3.26-6.23-1.37a15.24,15.24,0,0,1-12.19,4.23,4.94,4.94,0,0,0-4,1.89,1.46,1.46,0,0,0-.18,1.51c1.38,3.08,1.6,5.77.66,8-1.54,3.66-5.79,5.24-8.88,6.39a6.49,6.49,0,0,0-5.25,7.41,52.43,52.43,0,0,1-.2,6.12c-.05.83-.11,1.65-.16,2.48a61.49,61.49,0,0,0,1.38,7.09,47.9,47.9,0,0,1,1.64,10.17,5,5,0,0,0,1.41,3.81,6.19,6.19,0,0,0,4.73,1.2,28.23,28.23,0,0,0,9-2.35,11.08,11.08,0,0,1,5.33-1.06,11.34,11.34,0,0,1,10.79,11.84,90.82,90.82,0,0,1-5,30.23c-.13.4-.31.87-.5,1.35-.68,1.69-.8,2.32-.24,2.92a3.44,3.44,0,0,0,4.38.64,9.07,9.07,0,0,1,12,3.73,44.12,44.12,0,0,1,3.81,35c-1.79,6.81-8.51,9.23-15,11.57a57.48,57.48,0,0,0-6.65,2.7,4.94,4.94,0,0,1-2,.42,2.92,2.92,0,0,0-.83.1A100.61,100.61,0,0,0,504,899.84c5.13,1.62,10.17,3.57,15.07,5.47,8.69,3.37,17.67,6.85,27.06,8.38a4.34,4.34,0,0,1,2,.86,17.68,17.68,0,0,0,4.82,2.53c3.74,1.52,8.39,3.41,8.12,9.35-.36,7.74-6.32,11.53-12.65,15.54l-.28.18,2.85.79c10.88,3,21.16,5.9,32.48,2.76A100,100,0,0,1,610.24,941,15.19,15.19,0,0,1,612,940.88ZM955.36,465.22ZM852.62,571.87a2.58,2.58,0,0,1-1.67-.55c-1.21-1-1-2.69-.89-4.07a6,6,0,0,0,.06-1.54l1.33-.51-1.33.5c-.87-2.3-.89-4,0-5.25,1.15-1.71,3.43-1.74,5.09-1.77a7.86,7.86,0,0,0,1.47-.1,4.16,4.16,0,0,1,4,.41c1.9,1.34,2.57,4.18,2.57,6.21,0,4.9-4.35,5.57-7,6a12.87,12.87,0,0,0-2,.4A5.19,5.19,0,0,1,852.62,571.87Zm.15-7.19a6.25,6.25,0,0,1,.12,2.87,12.26,12.26,0,0,0-.09,1.45,3.32,3.32,0,0,0,.54-.14,15.43,15.43,0,0,1,2.45-.51c3.16-.48,4.55-.93,4.55-3.15,0-1.44-.51-3.29-1.36-3.89a1.41,1.41,0,0,0-1.39,0,8,8,0,0,1-2.38.27c-1,0-2.46,0-2.79.52-.2.29-.21,1.13.35,2.63Z"/></g><g id="Caminho_2287" data-name="Caminho 2287"><path class="cls-9" d="M539.37,940.89c-9.48-1.86-18.74-1.21-28.21-4.51C524.43,931.26,532.39,932.51,539.37,940.89Z"/></g><g id="Caminho_2284" data-name="Caminho 2284"><path class="cls-11" d="M849.16,565.27c-3.66-9.68,5.53-6.78,8.35-7.77,5.17-1.84,6.82,4.33,6.82,7.77,0,7.1-7.93,6.08-11.72,7.37C846.79,574.59,850.11,567.7,849.16,565.27Z"/></g></g></g></g></svg>