<svg xmlns="http://www.w3.org/2000/svg" width="35.334" height="24.616" viewBox="0 0 35.334 24.616">
  <g id="Icon_ionic-ios-menu" data-name="Icon ionic-ios-menu" transform="translate(-4.5 -10)">
    <path id="Caminho_1" data-name="Caminho 1" d="M38.362,14.785H5.972c-.81,0-1.472-1.048-1.472-2.33h0c0-1.281.663-2.33,1.472-2.33h32.39c.81,0,1.472,1.048,1.472,2.33h0C39.834,13.736,39.172,14.785,38.362,14.785Z" transform="translate(0 -0.125)" fill="#fff"/>
    <path id="Caminho_2" data-name="Caminho 2" d="M38.362,21.535H5.972c-.81,0-1.472-1.048-1.472-2.33h0c0-1.281.663-2.33,1.472-2.33h32.39c.81,0,1.472,1.048,1.472,2.33h0C39.834,20.486,39.172,21.535,38.362,21.535Z" transform="translate(0 3.538)" fill="#fff"/>
    <path id="Caminho_3" data-name="Caminho 3" d="M38.362,28.283H5.972c-.81,0-1.472-1.048-1.472-2.329h0c0-1.281.663-2.329,1.472-2.329h32.39c.81,0,1.472,1.048,1.472,2.329h0C39.834,27.235,39.172,28.283,38.362,28.283Z" transform="translate(0 6.333)" fill="#fff"/>
  </g>
</svg>
