<svg xmlns="http://www.w3.org/2000/svg" width="227.961" height="35.996" viewBox="0 0 227.961 35.996">
  <g id="Grupo_5" data-name="Grupo 5" transform="translate(-1104.635 -701.904)">
    <path id="Caminho_6" data-name="Caminho 6" d="M1645.084,739.977c-1.431-5.487-2.839-10.98-4.185-16.488-.308-1.259-.739-1.868-2.242-1.886-1.628-.02-1.66.945-1.918,1.984-1.413,5.7-2.86,11.386-4.248,17.089-.139.572-.844,1.569.4,1.7.919.1,2.267.672,2.583-1.011a19.846,19.846,0,0,0,.467-2.148c.108-1.482.894-1.881,2.285-1.743,1.27.126,2.56-.346,2.937,1.7.632,3.423.8,3.393,4.352,3.224.067,0,.135-.013.2-.021v-.8C1645.087,741.211,1645.224,740.515,1645.084,739.977Zm-6.723-5.53c-.794.141-1.321-.112-1.1-1.084.332-1.493.628-2.993,1.064-5.086a19.53,19.53,0,0,1,1.462,5.462C1639.978,734.956,1638.886,734.354,1638.361,734.448Z" transform="translate(-313.125 -11.692)" fill="#fff"/>
    <path id="Caminho_7" data-name="Caminho 7" d="M1119.8,701.906c-4.452.1-8.909.09-13.361,0-1.417-.027-1.818.376-1.8,1.781.074,6.4.018,12.808.038,19.212.015,4.865.076,9.73.116,14.595l-.124.4h6.489l-.037-.4c.386-3.655.113-7.319.159-10.979.053-4.215.012-4.216,4.189-4.216,4.135,0,4.1,0,3.878-4.1-.051-.936-.314-1.3-1.283-1.271-1.821.053-3.645-.02-5.466.026-.953.024-1.331-.323-1.316-1.274q.055-3.6,0-7.2c-.016-.944.334-1.318,1.294-1.3,1.889.04,3.779.01,5.668.01,3.458,0,3.382,0,3.458-3.341C1121.731,702.386,1121.36,701.871,1119.8,701.906Z" transform="translate(0 0)" fill="#fff"/>
    <path id="Caminho_8" data-name="Caminho 8" d="M1170.768,734.328c.171-1.356-.292-1.911-1.761-1.832-1.951.106-3.919-.093-5.871.007-1.453.074-1.8-.464-1.794-1.829.057-8.01.028-16.022.028-24.033,0-4.732,0-4.668-4.709-4.737-1.563-.023-2.057.354-2.044,1.979.078,10.614.037,21.228.048,31.843,0,.591.113,1.181.173,1.772l-.233.4h16.222l-.249-.4C1170.951,736.459,1170.636,735.378,1170.768,734.328Z" transform="translate(-29.659)" fill="#fff"/>
    <path id="Caminho_9" data-name="Caminho 9" d="M1367.93,721.672c-1.24.037-1.632.407-1.6,1.62.074,2.932.024,5.866.024,8.8q0,2.7,0,5.4c0,5.106,0,5.106,5.2,4.982,2.908-.069,4.669-1.319,5.517-4.085a20.34,20.34,0,0,0,.7-8.108C1377.019,722.882,1375.362,721.449,1367.93,721.672Zm5.5,15.946a2.584,2.584,0,0,1-.834,1.33,1.962,1.962,0,0,1-1.908.337c-.692-.239-.418-.905-.426-1.39-.031-2-.013-4-.013-6,0-1.932-.014-3.865.01-5.8.006-.427-.23-1.016.329-1.234a1.524,1.524,0,0,1,1.678.4,3.967,3.967,0,0,1,.847,1.335A19.709,19.709,0,0,1,1373.434,737.618Z" transform="translate(-155.331 -11.721)" fill="#fff"/>
    <path id="Caminho_10" data-name="Caminho 10" d="M1502.937,723.34c.01-1.172-.262-1.634-1.553-1.651-1.373-.018-1.718.44-1.674,1.735.095,2.8.044,5.6.013,8.407,0,.374.308.932-.426,1.166-1.573-3.258-3.187-6.477-4.676-9.751-.512-1.127-1.123-1.727-2.417-1.514-1.455.241-.821,1.357-.828,2.068-.055,5.671,0,11.344-.054,17.016-.012,1.246.256,1.744,1.658,1.729,1.337-.015,1.55-.513,1.529-1.657-.061-3.327-.022-6.655-.022-10.387a4.06,4.06,0,0,1,1.42,1.934c1.458,3,2.946,6,4.334,9.031a1.625,1.625,0,0,0,1.919,1.017c1.116-.109.736-.958.739-1.525C1502.924,735.084,1502.886,729.212,1502.937,723.34Z" transform="translate(-229.477 -11.744)" fill="#fff"/>
    <path id="Caminho_11" data-name="Caminho 11" d="M1564.32,731.472c2.6-1.129,3.156-2.359,2.821-5.992-.216-2.348-1.365-3.549-3.717-3.687-1.683-.1-3.378,0-5.065-.052-.984-.031-1.276.382-1.273,1.309.026,6.077.041,12.154-.005,18.231-.013,1.777,1.245,1.164,2.118,1.231.925.071,1.9.247,1.82-1.3-.115-2.265-.042-4.539-.017-6.809,0-.41-.247-1.02.449-1.136a1.081,1.081,0,0,1,1.145.67,8.527,8.527,0,0,1,.7,1.867,20.958,20.958,0,0,1,.537,5.369c-.038.815.021,1.521,1.134,1.354.955-.144,2.5.56,2.531-1.127C1567.553,737.854,1567.561,734.253,1564.32,731.472Zm-1.173-2.048a1.538,1.538,0,0,1-1.69.8c-.76-.159-.419-.855-.45-1.323a12.834,12.834,0,0,1,.005-2.374c.074-.607-.516-1.594.653-1.722s1.67.625,1.742,1.7c.022.329,0,.66,0,.99A3.361,3.361,0,0,1,1563.147,729.424Z" transform="translate(-268.556 -11.774)" fill="#fff"/>
    <path id="Caminho_12" data-name="Caminho 12" d="M1612.057,723.323c.011-1.2-.32-1.61-1.58-1.631-1.359-.022-1.538.558-1.518,1.686.059,3.268.021,6.538.021,9.9-.707-.166-.713-.636-.876-.971-1.545-3.184-3.122-6.356-4.582-9.578-.486-1.071-1.262-1-2.15-.989-.752.013-.855.456-.854,1.057q.012,9.31,0,18.62c0,.737.228,1.046,1.029,1.1,1.4.087,2.236-.067,2.151-1.859-.159-3.343-.046-6.7-.046-10.049a3.078,3.078,0,0,1,1.243,1.435c1.51,3.128,3.047,6.244,4.488,9.4a1.6,1.6,0,0,0,1.9,1.041c1.1-.124.732-.966.735-1.54C1612.043,735.069,1612,729.2,1612.057,723.323Z" transform="translate(-294.338 -11.745)" fill="#fff"/>
    <path id="Caminho_13" data-name="Caminho 13" d="M1301.83,723.254c.019-1.7-1.095-1.285-2.033-1.345-1.026-.065-1.847-.03-1.771,1.408.105,2-.036,4,.045,6,.058,1.435-.888,1.18-1.742,1.211s-1.678.059-1.508-1.194a9.017,9.017,0,0,0,.009-1.2c0-6.038,0-6.038-1.819-6.042-1.932,0-1.932,0-1.932,6.146v4c0,2.936.082,5.874-.035,8.8-.057,1.441.567,1.68,1.775,1.575,1.014-.088,2.2.341,2.047-1.491-.163-1.921.013-3.868-.055-5.8-.039-1.1.083-1.743,1.48-1.649,1.131.076,1.906.057,1.8,1.568-.144,1.991.05,4.005-.063,6-.084,1.5.816,1.406,1.794,1.359.938-.046,2.038.375,2.015-1.343Q1301.718,732.261,1301.83,723.254Z" transform="translate(-110.644 -11.864)" fill="#fff"/>
    <path id="Caminho_14" data-name="Caminho 14" d="M1530.186,721.792c-1.076-.057-2.161.036-3.234-.046-1.161-.088-1.511.362-1.485,1.489.068,2.931.023,5.865.023,8.8v5.4c0,5.374,0,5.374,5.471,5.082a5.315,5.315,0,0,0,4.786-3.549,22.145,22.145,0,0,0,.112-12.706C1534.911,723.21,1533.349,721.959,1530.186,721.792Zm2.251,15.833c-.241.648-.465,1.369-1.312,1.646-1.171.382-1.934.443-1.909-1.172.061-3.862,0-7.727.041-11.59.006-.569-.448-1.474.566-1.639a1.868,1.868,0,0,1,1.969,1.09,10.612,10.612,0,0,1,1.171,4.162c.09.859.087,1.728.126,2.593A14.829,14.829,0,0,1,1532.437,737.625Z" transform="translate(-249.79 -11.772)" fill="#fff"/>
    <path id="Caminho_15" data-name="Caminho 15" d="M1238.906,723.355c-2.261-3.1-6.779-3.19-8.628.146-2.9,5.23-2.812,10.753-.292,16.14a4.812,4.812,0,0,0,4.982,2.771,5.266,5.266,0,0,0,4.543-3.2,15.013,15.013,0,0,0,1.341-7.213C1240.863,727.818,1240.282,725.243,1238.906,723.355ZM1236.29,738.1a1.672,1.672,0,0,1-1.724,1.413,1.983,1.983,0,0,1-1.822-1.364c-.826-2.056-.457-4.218-.616-6.283.107-2.109-.111-4.191.563-6.2.3-.881.732-1.583,1.789-1.633a1.823,1.823,0,0,1,1.988,1.618A25.211,25.211,0,0,1,1236.29,738.1Z" transform="translate(-73.283 -11.343)" fill="#fff"/>
    <path id="Caminho_16" data-name="Caminho 16" d="M1467.126,724.666c-.973-2.056-2.463-3.464-4.987-3.436a5.06,5.06,0,0,0-4.9,3.263,18.36,18.36,0,0,0-.034,14.776,5.042,5.042,0,0,0,5.1,3.27c2.473-.072,3.942-1.522,4.893-3.6a15.169,15.169,0,0,0,1.172-7.043A15.478,15.478,0,0,0,1467.126,724.666Zm-3,12.552c-.2,1.078-.484,2.417-1.98,2.4-1.625-.015-2.1-1.337-2.251-2.628-.2-1.65-.183-3.324-.271-5.228.094-1.562.1-3.371.349-5.146.166-1.169.544-2.452,2.16-2.452,1.519,0,1.876,1.21,2.07,2.313A29.744,29.744,0,0,1,1464.126,737.219Z" transform="translate(-208.364 -11.472)" fill="#fff"/>
    <path id="Caminho_17" data-name="Caminho 17" d="M1330.023,722.691c-.3-1.2-1.134-.892-1.881-.929-.809-.041-1.609-.122-1.878.993-1.575,6.524-3.188,13.04-4.79,19.565,2.979.465,2.979.465,3.606-2.12.141-.582.287-1.162.42-1.746a1.017,1.017,0,0,1,.719-.852c2.3-.769,3.935.14,4.432,2.494.558,2.64.665,2.684,3.23,2.454.8-.072,1.1-.307.9-1.084C1333.188,735.209,1331.568,728.959,1330.023,722.691Zm-2.3,11.85c-.792.082-1.307-.122-1.095-1.1.362-1.667.67-3.345,1.077-5.408a26.92,26.92,0,0,1,1.37,5.659C1329.267,734.853,1328.3,734.481,1327.725,734.541Z" transform="translate(-128.708 -11.775)" fill="#fff"/>
    <path id="Caminho_18" data-name="Caminho 18" d="M1405.575,739.347c-3.4-.076-3.294-.035-3.445-3.375-.084-1.849.321-2.8,2.364-2.4,1.559.3,1.877-.414,1.9-1.855.023-1.769-1.135-1.294-2.027-1.286-1.276.012-2.3.152-2.241-1.77.114-3.772-.013-3.776,3.939-3.846a1.2,1.2,0,0,1,.2,0c1.205.2,1.489-.389,1.437-1.47-.044-.937.012-1.689-1.341-1.633-2.221.091-4.45.067-6.673.006-1.068-.029-1.4.354-1.38,1.392.056,3,.02,6,.02,9s.048,6-.024,9c-.027,1.157.387,1.5,1.51,1.464,2.155-.067,4.319-.107,6.47.011,1.438.079,1.775-.408,1.8-1.784C1408.132,738.586,1406.574,739.37,1405.575,739.347Z" transform="translate(-174.31 -11.755)" fill="#fff"/>
    <path id="Caminho_19" data-name="Caminho 19" d="M1211.615,721.7c-2.02.071-4.049.105-6.064-.009-1.469-.084-2.027.3-1.955,1.861.132,2.859.038,5.729.038,8.594,0,3,.082,6-.032,8.994-.063,1.678.995,1.4,1.969,1.384.939-.017,2.092.369,2-1.347-.115-2.059.035-4.132-.05-6.194-.047-1.161.377-1.56,1.5-1.437.6.065,1.214-.018,1.818.017.816.047,1.158-.206,1.251-1.1.171-1.656-.4-2.352-2.094-2.066-1.8.3-2.637-.167-2.51-2.259.2-3.324.05-3.333,3.629-3.337a4.72,4.72,0,0,1,.606,0c1.142.148,1.653-.144,1.672-1.474C1213.413,721.9,1212.846,721.653,1211.615,721.7Z" transform="translate(-58.736 -11.736)" fill="#fff"/>
    <path id="Caminho_20" data-name="Caminho 20" d="M1441.9,740.01c-.673.04-1.36-.07-2.024.016-1.843.239-2.285-.6-2.259-2.3.077-5.072-.007-10.145-.028-15.219.032-.3-.057-.508-.41-.506-.671-.027-1.345-.027-2.013-.088-.978-.089-1.269.337-1.261,1.275.058,6.323.071,12.647.1,18.97l.343.365c2.5.031,4.994.04,7.489.1.879.022,1.2-.323,1.17-1.173C1442.98,740.682,1443.04,739.943,1441.9,740.01Z" transform="translate(-195.445 -11.87)" fill="#fff"/>
    <path id="Caminho_21" data-name="Caminho 21" d="M1271.5,739.76c-.733.069-1.487-.057-2.217.025-1.689.19-2.224-.515-2.205-2.161.06-5.118-.017-10.237-.042-15.356a2.494,2.494,0,0,0-3.609,0q0,9.823.011,19.646c-.031.273.07.422.369.386,2.555.025,5.11.028,7.663.087.89.021,1.361-.169,1.344-1.193C1272.8,740.247,1272.651,739.653,1271.5,739.76Z" transform="translate(-94.256 -11.629)" fill="#fff"/>
    <path id="Caminho_22" data-name="Caminho 22" d="M1589.167,721.74c-1.115-.029-1.734.124-1.683,1.49.106,2.929.032,5.865.033,8.8,0,3.067.062,6.135-.028,9.2-.039,1.335.676,1.325,1.629,1.305s1.823.149,1.8-1.356q-.113-9,0-18C1590.94,721.75,1590.2,721.766,1589.167,721.74Z" transform="translate(-286.601 -11.772)" fill="#fff"/>
    <path id="Caminho_23" data-name="Caminho 23" d="M1434.481,772.106l-.343-.365C1434.093,772.01,1434.2,772.135,1434.481,772.106Z" transform="translate(-195.576 -41.453)" fill="#fff"/>
  </g>
</svg>
