<svg xmlns="http://www.w3.org/2000/svg" viewBox="0 0 33.57 31.8"><defs><style>.cls-1{isolation:isolate;}.cls-2{fill:#1a1a1a;}</style></defs><g id="Camada_2" data-name="Camada 2"><g id="Camada_1-2" data-name="Camada 1"><g id="_" data-name=" " class="cls-1"><g class="cls-1"><path class="cls-2" d="M0,26.06a6.84,6.84,0,0,0,5.1-3.78,15.49,15.49,0,0,0,1.74-7.45c0-.24,0-.49,0-.73a4.1,4.1,0,0,0-.16-.79H0V0H13.06V12.27a27.14,27.14,0,0,1-3.05,13Q7,30.94,0,31.8Zm20.57,0q4.21-.79,5.92-6.1a16.68,16.68,0,0,0,.85-5.19,3.84,3.84,0,0,0,0-.52c0-.14,0-.46-.09-.94H20.57V0h13V12.27q0,9-3.6,13.91a13.35,13.35,0,0,1-9.4,5.62Z"/></g></g></g></g></svg>